**ABCDEFGHIJKLMNOPQRSTUVWXYZabcdefghijklmnopqrstuvwxyz**************************
**PARASOLID !"#$%&'()*+,-./:;<=>?@[\]^_`{|}~0123456789**************************
**PART1;
MC=AMD64;
MC_MODEL=Intel64 Family 6 Model 58 Stepping 9, GenuineIntel;
MC_ID=unknown;
OS=Windows_NT;
OS_RELEASE=unknown;
FRU=Parasolid Version 31.0, build 264, 12-10-2018;
APPL=SOLIDWORKS 2019-2019057;
SITE=;
USER=unknown;
FORMAT=text;
GUISE=transmit;
KEY=Mic4013onBoard;
FILE=Mic4013onBoard.x_t;
DATE=Sat Apr  4 14:00:26 2020;
**PART2;
SCH=SCH_3100264_31001;
USFLD_SIZE=0;
**PART3;
**END_OF_HEADER*****************************************************************
T51 : TRANSMIT FILE created by modeller version 310026423 SCH_3100264_31001_1300
6215 0 10 20 CCCCCCCI4 mesh1006 0 I8 polyline1008 0 CCCCCCCCCCA16 mesh_offset_da
ta206 0 Z1 5 2 3 0 0 0 0 0 0 0 1e3 1e-8 0 0 0 1 0 1 4 0 81 255 1 2 5 5 1 0 0 0 0
 0 70 11 CI9 list_type0 0 1 uI10 notransmit0 0 1 lCCCDCCDI12 finger_index0 0 1 d
I12 finger_block1012 0 CZ3 0 4 T1 0 0 1 20 1 6 6 11 255 4 3 0 1 7 8 1 9 0 0 0 12
 34 CCCCCCI4 mesh1006 0 I8 polyline1008 0 CCCCCCCDI5 owner1040 0 CCCCCCI13 bound
ary_mesh1006 0 I17 boundary_polyline1008 0 CCCA16 index_map_offset0 0 1 dA9 inde
x_map82 0 A17 node_id_index_map82 0 A20 schema_embedding_map82 0 A5 child12 0 A1
4 lowest_node_id0 0 1 dA16 mesh_offset_data206 0 Z7 2796 10 11 0 12 0 0 0 0 1e3
 1e-8 4 13 0 1 0 1 1 14 15 16 17 0 0 18 19 20 0 0 0 0 0 0 0 100 255 8 4 4 0 0 0
 -1 0 1 0 0 0 0 1 -.000785655556032848 .000570454941785298 .0190583260716874 1 3
 ?11 9 1 0 1 13 21 1 0 4 0 0 12 13 402 22 23 0 0 0 0 0 0 1e3 1e-8 9 24 7 1 0 1 1
 25 26 27 28 0 0 29 30 31 0 0 0 0 0 0 0 100 21 2 9 0 0 1 0 0 0 1 0 0 0 1 -.00079
0780929710667 -.0002923450582147015 .014986 1 1 ?81 1 22 402 5 13 0 0 0 0 32 70
 23 0 4 T13 0 0 3 20 1 33 33 13 255 25 99 0 13 0 34 0 0 35 0 50 255 26 94 0 34 3
6 0 0 +.007493 8128e-7 .007493 -1 0 0 0 0 1 31 255 27 158 0 37 38 0 0 +-.00254 0
 -.00510575447964992 0 -1 0 0 0 -1 762e-6 29 255 28 75 0 39 40 0 .007493 0 .0074
93 19 8 CCCCCCCA5 owner12 0 Z29 33 0 13 35 0 41 V0 16 255 30 82 0 ?42 0 43 44 0
 0 13 18 255 31 30 0 45 0 46 47 ?13 17 255 45 0 48 49 50 31 51 52 0 53 +18 46 27
 0 50 31 54 55 ?13 29 47 32 0 31 55 56 .007493 8128e-7 .007493 29 55 29 0 46 57
 47 -.007493 8128e-7 .007493 29 56 78 0 58 47 59 .007493 0 -.007493 18 58 69 0 6
0 61 0 56 ?13 29 59 77 0 61 56 40 -.007493 0 -.007493 18 61 68 0 62 63 58 59 ?13
 29 40 76 0 63 59 28 -.007493 0 .007493 18 63 67 0 64 39 61 40 ?13 17 64 0 65 66
 67 63 68 69 0 70 +18 39 66 0 71 72 63 28 ?13 17 71 0 73 53 70 39 74 75 0 76 +18
 72 21 0 77 54 39 78 ?13 17 77 0 79 42 80 72 81 82 0 49 -18 54 24 0 81 46 72 57
 ?13 29 78 23 0 72 0 57 .007493 8128e-7 -.007493 29 57 26 0 54 78 55 -.007493 81
28e-7 -.007493 17 81 0 48 50 49 54 77 82 0 80 +15 255 48 4 0 49 83 0 17 50 0 48
 45 81 46 84 85 0 66 +17 49 0 48 81 45 72 86 87 0 88 +16 82 9 0 ?81 85 87 89 0 0
 13 17 80 0 79 77 62 54 67 43 0 84 -15 79 87 0 62 90 0 17 62 0 79 80 42 61 60 91
 0 67 +17 67 0 65 64 84 61 80 43 0 68 +16 43 81 0 ?67 30 92 93 0 0 13 17 84 0 65
 67 66 54 50 85 0 0 -15 65 85 0 64 94 0 17 66 0 65 84 64 46 70 92 0 51 -16 85 13
 0 ?50 52 82 95 0 0 13 16 52 17 0 ?45 96 85 97 0 0 13 30 255 95 15 0 85 89 97 0
 +-.007493 8128e-7 .007493 0 0 1 30 89 11 0 82 98 95 0 +-.007493 8128e-7 -.00749
3 -1 0 0 30 97 19 0 52 95 99 0 +-.007493 8128e-7 .007493 1 0 0 30 99 74 0 100 97
 101 0 +.007493 0 .007493 0 0 -1 16 100 62 0 ?102 91 103 99 0 0 13 30 101 73 0 9
1 99 104 0 +-.007493 0 -.007493 -1 0 0 16 91 58 0 ?62 69 100 101 0 0 13 30 104 7
2 0 69 101 105 0 +-.007493 0 .007493 0 0 1 16 69 54 0 ?64 75 91 104 0 0 13 30 10
5 71 0 75 104 106 0 +-.007493 0 .007493 1 0 0 16 75 50 0 ?71 87 69 105 0 0 13 30
 106 95 0 96 105 107 0 +.007493 8128e-7 .007493 0 -1 0 16 96 79 0 ?76 92 52 106
 0 0 13 30 107 96 0 92 106 93 0 +-.007493 8128e-7 .007493 0 -1 0 16 92 80 0 ?70
 43 96 107 0 0 13 30 93 97 0 43 107 44 0 +-.007493 8128e-7 -.007493 0 -1 0 30 44
 98 0 30 93 108 0 +.007493 8128e-7 -.007493 0 -1 0 31 108 140 0 109 44 110 0 +0
 0 .004070202077007825 0 -1 0 0 0 -1 .000297244980669235 16 109 276 0 ?111 112 0
 108 0 0 13 31 110 146 0 113 108 38 0 +.00254 0 -.00510575447964992 0 -1 0 0 0 -
1 762e-6 16 113 246 0 ?114 115 112 110 0 0 13 31 38 152 0 116 110 27 0 +0 0 -.00
510575447964992 0 -1 0 0 0 -1 762e-6 16 116 216 0 ?117 118 115 38 0 0 13 17 117
 0 119 117 117 0 120 116 0 0 +16 118 212 0 ?121 37 116 122 0 0 13 16 115 242 0 ?
123 116 113 124 0 0 13 17 123 0 125 123 123 0 126 115 0 0 +31 124 323 0 115 127
 122 0 +.00254 8128e-7 -.00510575447964992 0 -1 0 0 0 -1 762e-6 31 127 324 0 112
 0 124 0 +0 8128e-7 .004070202077007825 0 -1 0 0 0 -1 .000297244980669235 31 122
 322 0 118 124 128 0 +0 8128e-7 -.00510575447964992 0 -1 0 0 0 -1 762e-6 31 128
 321 0 103 122 98 0 +-.00254 8128e-7 -.00510575447964992 0 -1 0 0 0 -1 762e-6 16
 103 182 0 ?129 100 37 128 0 0 13 30 98 7 0 87 128 89 0 +.007493 8128e-7 .007493
 0 0 -1 16 87 5 0 ?49 82 75 98 0 0 13 17 129 0 130 129 129 0 131 103 0 0 +16 37
 186 0 ?132 103 118 27 0 0 13 17 132 0 133 132 132 0 134 37 0 0 +15 133 193 0 13
2 135 136 17 134 0 137 134 134 0 132 37 0 0 -15 137 157 0 134 138 139 14 255 138
 48 140 ?141 83 137 25 142 +0 0 141 83 41 15 139 151 0 120 138 143 17 120 0 139
 120 120 0 117 116 0 0 -15 143 145 0 144 138 145 17 144 0 143 144 144 0 114 113
 0 0 -15 145 139 0 146 138 147 17 146 0 145 146 146 0 111 109 0 0 -15 147 49 0 1
48 138 0 17 148 0 147 74 60 39 102 100 0 0 -17 74 0 147 68 148 63 71 75 0 0 -17
 60 0 147 148 68 58 62 91 0 42 -17 102 0 149 88 76 58 148 100 0 0 +15 149 89 0 1
02 34 0 17 88 0 149 86 102 72 42 30 0 0 -17 76 0 149 102 86 39 53 96 0 148 +17 8
6 0 149 76 88 31 49 87 0 0 -17 53 0 73 51 71 31 76 96 0 86 -15 73 83 0 71 150 0
 17 51 0 73 70 53 46 45 52 0 0 -17 70 0 73 71 51 63 66 92 0 74 +14 150 84 151 ?8
3 94 73 25 152 -0 0 83 94 41 81 1 151 395 153 150 154 0 155 156 157 14 83 1 156
 ?138 150 130 25 158 -0 0 138 150 41 14 94 86 155 ?150 90 65 25 159 -0 0 150 90
 41 50 152 91 0 150 142 159 0 +-.007493 8128e-7 .007493 0 0 -1 -1 0 0 13 41 34 0
 0 0 0 0 0 29 34 14 34 90 160 ?90 0 149 25 26 -0 0 90 0 41 81 1 160 392 153 34 1
61 0 0 162 163 14 90 88 162 ?94 34 79 25 36 -0 0 94 34 41 81 1 162 393 153 90 16
4 0 160 155 165 50 36 93 0 90 159 26 0 +-.007493 8128e-7 -.007493 0 0 1 1 0 0 50
 159 92 0 94 152 36 0 +-.007493 8128e-7 .007493 1 0 0 0 0 -1 80 255 1 153 0 166
 8001 0 0 0 0 3 5 0 0 0 FFFFTFTFFFFFFF2 81 1 164 382 167 90 0 162 161 168 169 81
 1 155 394 153 94 170 0 162 151 171 83 255 3 165 .792156862745098 .8196078431372
55 .933333333333333 81 1 170 378 167 94 0 155 172 161 173 83 3 171 .792156862745
098 .819607843137255 .933333333333333 80 1 167 174 175 9000 1 1 1 1 1 1 1 1 0 FF
FFTFTFFFFFFF1 81 1 172 376 167 83 0 156 154 170 176 81 1 161 380 167 34 0 160 17
0 164 177 82 255 1 173 -1944387468 82 1 177 -1943863180 81 1 156 396 153 83 172
 0 151 140 178 81 1 154 374 167 150 0 151 179 172 180 82 1 176 -1951203181 81 1
 179 372 167 138 0 140 0 154 181 82 1 180 -1944649612 81 1 140 397 153 138 179 0
 156 182 183 82 1 181 -1945567085 81 1 182 398 153 141 168 0 140 184 185 83 3 18
3 .792156862745098 .819607843137255 .933333333333333 14 141 280 182 ?186 138 187
 25 188 -0 0 186 138 41 81 1 168 384 167 141 0 182 164 189 190 81 1 184 399 153
 186 189 0 182 191 192 83 3 185 .792156862745098 .819607843137255 .9333333333333
33 14 186 250 184 ?193 141 194 25 195 -0 0 193 141 41 81 1 189 386 167 186 0 184
 168 196 197 81 1 191 400 153 193 196 0 184 198 199 83 3 192 .792156862745098 .8
19607843137255 .933333333333333 14 193 220 191 ?135 186 119 25 200 -0 0 135 186
 41 81 1 196 388 167 193 0 191 189 201 202 81 1 198 401 153 135 201 0 191 0 203
 83 3 199 .792156862745098 .819607843137255 .933333333333333 14 135 190 198 ?0 1
93 133 25 204 -0 0 0 193 41 81 1 201 390 167 135 0 198 196 0 205 83 3 203 .79215
6862745098 .819607843137255 .933333333333333 82 1 205 -1014497133 51 255 204 318
 0 135 0 200 0 +-.00254 -.0058928 -.00510575447964992 0 1 0 762e-6 0 0 1 51 200
 317 0 193 204 195 0 +0 -.0058928 -.00510575447964992 0 1 0 762e-6 0 0 1 51 195
 314 0 186 200 188 0 +.00254 -.0058928 -.00510575447964992 0 1 0 762e-6 0 0 1 51
 188 311 0 141 195 158 0 +0 -.0058928 .004070202077007825 0 1 0 .000297244980669
235 0 0 1 50 158 3 0 83 188 142 0 +0 8128e-7 0 0 -1 0 0 0 -1 50 142 70 0 138 158
 152 0 +0 0 0 0 -1 0 0 0 -1 82 1 202 -1015611245 15 119 223 0 117 193 206 15 206
 224 0 207 193 0 17 207 0 206 207 207 0 121 118 0 0 -17 121 0 208 121 121 0 207
 118 0 0 +15 208 172 0 121 83 125 15 125 167 0 123 83 209 15 209 162 0 210 83 48
 17 210 0 209 210 210 0 211 112 0 0 +17 211 0 212 211 211 0 210 112 0 0 -16 112
 272 0 ?210 113 109 127 0 0 13 15 212 284 0 211 141 0 82 1 197 -1016725357 15 19
4 253 0 114 186 213 17 114 0 194 114 114 0 144 113 0 0 +15 213 254 0 126 186 0 1
7 126 0 213 126 126 0 123 115 0 0 -82 1 190 -1017839469 15 187 283 0 111 141 212
 17 111 0 187 111 111 0 146 109 0 0 +83 3 178 .792156862745098 .819607843137255
 .933333333333333 79 255 14 175 SWEntUnchanged82 1 169 -1944125324 79 15 166 SDL
/TYSA_COLOUR83 3 163 .792156862745098 .819607843137255 .933333333333333 15 130 1
77 0 129 83 208 83 3 157 .792156862745098 .819607843137255 .933333333333333 17 4
2 0 79 62 77 58 88 30 0 102 +17 68 0 147 60 74 61 64 69 0 0 -15 136 194 0 131 13
5 0 17 131 0 136 131 131 0 129 103 0 0 -19 35 100 0 13 0 29 25 S0 74 4 CI16 inde
x_map_offset0 0 1 dCCZ20 33 3 0 0 201 198 22 0 0 0 0 0 0 0 0 0 0 0 0 0 0 0 0 0 8
0 1 5 214 215 8017 0 0 0 0 0 0 0 0 0 TTTTTTTTTTTTTF3 84 255 9 32 mic_board79 13
 215 SDL/TYSA_NAME81 1 10 2796 5 7 216 0 0 0 217 70 11 0 4 T7 0 0 4 20 1 218 218
 133 255 12 2607 0 7 219 0 0 +220 199999999999993e-19 -275e-6 0 199999999999993e
-19 -275e-6 0 0 6.28318530717959 13 14 4 0 7 0 221 0 0 222 0 54 255 15 431 0 223
 224 0 0 -2e-5 0 0 -1 0 0 .0002050000000000315 7e-5 0 0 1 31 16 434 0 225 226 0
 227 +-271050543121376e-35 0 -3566804918911025e-32 1 -2282608143840645e-46 71329
0902951009e-33 713290902951009e-33 0 -1 .001899999999999745 29 17 338 0 228 229
 0 -5e-5 .0002050000000000255 68908292903659e-27 19 18 2 0 7 222 0 230 V0 16 19
 7 0 ?231 0 225 226 0 0 7 18 20 60 0 232 0 233 234 ?7 17 232 0 235 236 236 20 23
7 238 0 239 -18 233 61 0 237 20 240 241 ?7 29 234 307 0 20 0 241 .0013 -.0018499
9999999977 3952520006168115e-31 29 241 308 0 233 234 242 .0013 .0018499999999997
7 -2342696620461635e-31 29 242 319 0 240 241 243 -5e-5 -.000963714993739072 -.00
03553695434972685 18 240 111 0 244 233 245 242 ?7 29 243 320 0 245 242 246 -5e-5
 -.001223714993739088 -.0003553695436330025 18 245 112 0 247 240 248 243 ?7 29 2
46 321 0 248 243 249 -5e-5 -.000545953040136292 .000930369543565135 18 248 118 0
 250 245 251 246 ?7 29 249 322 0 251 246 252 -5e-5 -.000805953040136308 .0009303
69543429387 18 251 119 0 253 248 254 249 ?7 29 252 323 0 254 249 255 -5e-5 .0008
05953040136308 .000930369543565135 18 254 125 0 256 251 257 252 ?7 29 255 324 0
 257 252 258 -5e-5 .000545953040136292 .000930369543429387 18 257 126 0 259 254
 260 255 ?7 29 258 325 0 260 255 261 -5e-5 .001223714993738928 -.000355369543497
2615 18 260 132 0 262 257 263 258 ?7 29 261 326 0 263 258 264 -5e-5 .00096371499
3739232 -.000355369543633024 18 263 133 0 265 260 266 261 ?7 29 264 327 0 266 26
1 267 -5e-5 .0001300000000000184 -.001149999999965824 18 266 139 0 268 263 269 2
64 ?7 29 267 328 0 269 264 229 -5e-5 -.0001300000000000182 -.001150000000102052
 18 269 140 0 270 266 271 267 ?7 29 229 337 0 271 267 17 -5e-5 -.000205000000000
0255 -2298280177824055e-29 18 271 204 0 272 269 228 229 ?7 17 272 0 273 274 274
 271 275 276 0 277 -18 228 205 0 275 271 0 17 ?7 17 275 0 278 277 277 228 272 27
6 0 274 +15 278 208 0 275 279 0 17 277 0 278 275 275 271 274 280 0 0 +16 276 203
 0 ?275 281 280 282 0 0 7 17 274 0 273 272 272 228 277 280 0 0 -15 273 202 0 272
 223 0 16 280 206 0 ?277 276 0 283 0 0 7 134 255 283 384 0 280 282 226 284 +285
 286 134 282 383 0 276 220 283 287 +288 289 31 226 433 0 19 283 16 290 +0 0 3719
66048457254e-32 -1 0 0 0 0 1 .00184999999999992 141 255 284 291 284 284 283 136
 255 285 3 28 3 14 1 FFF1 292 293 294 135 255 286 2 0 45 255 84 292 -5e-5 .00020
50000000000255 68908292903659e-27 -5e-5 .00020500000001491 -2653458754524715e-20
 -5e-5 .000199114617357275 -543782357889655e-19 -5e-5 .000184535647626332 -90486
0374185395e-19 -5e-5 .0001784026181712475 -.0001020462365684974 -5e-5 .000163589
8135048725 -.0001242151654152794 -5e-5 .0001540525799389295 -.000135696847178812
 -5e-5 .000135861200469444 -.00015421693298591 -5e-5 .0001257711233934892 -.0001
625501556089365 -5e-5 .0001036021945591562 -.0001773629602939435 -5e-5 903970902
837227e-19 -.000184320909796872 -5e-5 665031171186526e-19 -.000194469698477891 -
5e-5 539921151904061e-19 -.0001983072869700345 -5e-5 2784208064249035e-20 -.0002
03508852257589 -5e-5 1297946307963978e-20 -.0002048837847616895 -5e-5 -129794629
6475922e-20 -.0002051162152384 -5e-5 -2600670311356665e-20 -.0002038739315393525
 -5e-5 -521567376643974e-19 -.0001986723662664525 -5e-5 -664141697198881e-19 -.0
00194254960761696 -5e-5 -904860374702156e-19 -.000184535647600993 -5e-5 -.000102
046236618456 -.0001784026181426715 -5e-5 -.00012421516546109 -.00016358981347008
8 -5e-5 -.0001356968472219524 -.000154052579900929 -5e-5 -.000163476975924957 -.
0001267655106889234 -5e-5 -.000178992173598887 -.000102942890960075 -5e-5 -.0001
99798434719813 -539573163362266e-19 -5e-5 -.0002050000000000445 -278072817868541
5e-20 -5e-5 -.0002050000000000255 -2298280177824055e-29 127 255 14 293 4 2 2 2 2
 2 2 2 2 2 2 2 2 4 128 255 14 294 0 .125 .1875 .25 .3125 .375 .4375 .5 .5625 .62
5 .6875 .75 .875 1 133 291 2492 0 7 295 296 0 +283 -5e-5 .0002050000000000255 68
908292903659e-27 -5e-5 -.0002050000000000255 -2298280177824055e-29 0 1 133 295 2
490 0 7 297 291 0 +282 -5e-5 -.0002050000000000255 -2298280177824055e-29 -5e-5 .
0002050000000000255 68908292903659e-27 0 1 133 296 2529 0 7 291 298 0 +299 50000
0000000243e-19 .001799955351137185 -1267808787349304e-20 500000000000243e-19 .00
1799955351137185 -1267808787349304e-20 0 6.28318530717959 133 298 2534 0 7 296 3
00 0 +301 .001149999999999966 -.002 0 .001149999999999966 -.002 0 0 6.2831853071
7959 31 299 343 0 302 0 303 304 +500000000000243e-19 0 0 -1 0 0 0 .9999751950762
89 -.00704338215194111 .001799999999999865 16 302 19 0 ?305 225 306 299 0 0 7 31
 303 344 0 306 299 307 308 +.0001000000000000294 0 0 1 0 0 0 -.999979907996012 -
.00633905389532759 .00199999999999958 141 304 296 304 304 299 16 306 23 0 ?309 3
02 310 303 0 0 7 31 307 345 0 311 303 301 312 +3e-5 0 0 -1 0 0 0 0 1 .0018 141 3
08 300 308 308 303 133 300 2535 0 7 298 313 0 +303 .0001000000000000294 -.001999
9598159916 -126781077906525e-19 .0001000000000000294 -.0019999598159916 -1267810
77906525e-19 0 6.28318530717959 133 313 2549 0 7 300 314 0 +315 199999999999993e
-19 -.0008937149937394 -.0003553695435312 199999999999993e-19 -.0008937149937394
 -.0003553695435312 0 6.28318530717959 133 314 2556 0 7 313 316 0 +317 199999999
999993e-19 -.0004759530401363 .0009303695435312 199999999999993e-19 -.0004759530
401363 .0009303695435312 0 6.28318530717959 31 315 355 0 318 319 317 320 +199999
999999993e-19 -.001093714993739 -.0003553695435312 -1 0 0 0 1 0 .000199999999999
6 16 318 66 0 ?321 238 322 315 0 0 7 134 319 354 0 323 324 315 325 +326 327 31 3
17 356 0 322 315 328 329 +199999999999993e-19 -.0006759530401363 .00093036954353
12 -1 0 0 0 1 0 2e-4 141 320 313 320 320 315 16 322 71 0 ?330 318 331 317 0 0 7
 31 328 357 0 331 317 332 333 +199999999999993e-19 .0006759530401363 .0009303695
435312 -1 0 0 0 1 0 2e-4 141 329 314 329 329 317 16 331 76 0 ?334 322 335 328 0
 0 7 31 332 358 0 335 328 336 337 +199999999999993e-19 .001093714993739 -.000355
3695435312 -1 0 0 0 1 0 2e-4 141 333 316 333 333 328 133 316 2563 0 7 314 338 0
 +328 199999999999993e-19 .0008759530401363 .0009303695435312 199999999999993e-1
9 .0008759530401363 .0009303695435312 0 6.28318530717959 133 338 2570 0 7 316 21
9 0 +332 199999999999993e-19 .001293714993739 -.0003553695435312 199999999999993
e-19 .001293714993739 -.0003553695435312 0 6.28318530717959 133 219 2577 0 7 338
 12 0 +336 199999999999993e-19 2e-4 -.00115 199999999999993e-19 2e-4 -.00115 0 6
.28318530717959 31 336 359 0 339 332 340 341 +199999999999993e-19 0 -.00115 -1 0
 0 0 1 0 2e-4 16 339 86 0 ?342 335 343 336 0 0 7 31 340 360 0 344 336 345 346 +7
99999999999988e-19 0 0 1 0 0 0 0 1 9e-4 141 341 219 341 341 336 16 344 91 0 ?347
 348 349 340 0 0 7 31 345 361 0 349 340 350 351 +.001299999999999934 0 .001 -1 0
 0 0 0 -1 25e-5 141 346 352 346 346 340 133 352 2057 0 7 353 354 0 +340 79999999
9999988e-19 0 9e-4 799999999999988e-19 0 9e-4 0 6.28318530717959 133 353 1939 0
 7 355 352 0 +356 .001299999999999934 .001 -25e-5 .001299999999999934 .001 -25e-
5 0 6.28318530717959 133 354 2058 0 7 352 357 0 +358 799999999999988e-19 0 6e-4
 799999999999988e-19 0 6e-4 0 6.28318530717959 133 357 2177 0 7 354 359 0 +360 -
5e-5 -.000963714993739072 -.0003553695434972685 -5e-5 -.001223714993739088 -.000
3553695436330025 0 1 31 358 375 0 343 361 362 363 +799999999999988e-19 0 0 1 0 0
 0 0 1 6e-4 16 343 144 0 ?364 339 365 358 0 0 7 134 361 374 0 366 367 358 368 +3
69 370 31 362 376 0 365 358 371 372 +.001100000000000076 0 .001 -1 0 0 0 0 -1 25
e-5 141 363 354 363 363 358 16 365 149 0 ?373 343 374 362 0 0 7 31 371 377 0 374
 362 375 376 +.001100000000000076 -.001 0 -1 0 0 0 0 -1 25e-5 141 372 377 372 37
2 362 133 377 2342 0 7 378 379 0 +362 .001100000000000076 0 75e-5 .0011000000000
00076 0 75e-5 0 6.28318530717959 133 378 2313 0 7 380 377 0 +361 -5e-5 -.0001300
000000000182 -.001150000000102052 -5e-5 .0001300000000000184 -.00114999999996582
4 0 1 133 379 2355 0 7 377 381 0 +371 .001100000000000076 -.001 -25e-5 .00110000
0000000076 -.001 -25e-5 0 6.28318530717959 133 381 2368 0 7 379 382 0 +375 .0011
00000000000076 0 -.00125 .001100000000000076 0 -.00125 0 6.28318530717959 133 38
2 2381 0 7 381 383 0 +384 .001100000000000076 .001 -25e-5 .001100000000000076 .0
01 -25e-5 0 6.28318530717959 31 375 378 0 385 371 384 386 +.001100000000000076 0
 -.001 -1 0 0 0 0 -1 25e-5 16 385 159 0 ?387 374 388 375 0 0 7 31 384 379 0 388
 375 389 390 +.001100000000000076 .001 0 -1 0 0 0 0 -1 25e-5 141 386 381 386 386
 375 16 388 164 0 ?391 385 392 384 0 0 7 31 389 380 0 393 384 394 395 +300000000
0000125e-20 0 0 -1 0 0 0 0 1 6e-4 141 390 382 390 390 384 16 393 179 0 ?396 397
 281 389 0 0 7 31 394 381 0 397 389 220 398 +300000000000007e-19 0 0 1 0 0 0 0 1
 275e-6 141 395 383 395 395 389 133 383 2396 0 7 382 297 0 +389 3000000000000125
e-20 0 6e-4 3000000000000125e-20 0 6e-4 0 6.28318530717959 133 297 2397 0 7 383
 295 0 +394 300000000000007e-19 0 275e-6 300000000000007e-19 0 275e-6 0 6.283185
30717959 16 397 192 0 ?399 366 393 394 0 0 7 31 220 382 0 281 394 282 400 +19999
9999999993e-19 0 0 -1 0 0 0 -1 0 275e-6 141 398 297 398 398 394 16 281 198 0 ?40
1 393 276 220 0 0 7 141 400 12 400 400 220 17 401 0 402 401 401 0 403 281 0 0 +1
5 402 201 0 401 223 273 17 403 0 404 403 403 0 401 281 0 0 -15 404 197 0 403 405
 0 14 405 195 406 ?223 407 408 14 409 +0 0 223 407 230 81 1 406 2720 167 405 410
 0 0 411 412 14 223 200 411 ?279 405 402 14 15 -0 0 279 405 230 14 407 190 413 ?
405 414 415 14 416 +0 0 405 414 230 15 408 196 0 417 405 404 51 409 420 0 405 41
6 418 0 +300000000000007e-19 0 0 -1 0 0 275e-6 0 0 1 13 230 3 0 0 0 0 0 0 18 221
 14 221 5 419 ?420 0 421 14 422 -0 0 420 0 230 81 1 419 2726 167 221 423 0 413 4
24 425 14 420 16 424 ?426 221 427 14 428 -0 0 426 221 230 15 421 6 0 429 221 430
 50 422 385 0 221 0 431 0 +0 .001976 .001977361278997 1 0 0 0 -1 0 51 431 388 0
 432 422 433 0 +5e-5 0 0 -1 0 0 .0018 0 0 1 14 432 26 434 ?435 426 436 14 431 +0
 0 435 426 230 51 433 389 0 435 431 437 0 +1e-4 0 0 1 0 -33881317890172e-31 .002
 -33881317890172e-31 0 -1 14 435 31 438 ?439 432 440 14 433 +0 0 439 432 230 50
 437 390 0 439 433 441 0 +3e-5 .001872 -.001872 -1 0 0 0 -1 0 14 439 36 442 ?443
 435 444 14 437 +0 0 443 435 230 51 441 392 0 445 437 446 0 +300000000000007e-19
 -.001093714993739 -.0003553695435312 -1 0 0 .0001999999999996 0 0 1 14 445 63 4
47 ?448 443 449 14 441 +0 0 448 443 230 51 446 393 0 448 441 450 0 +300000000000
007e-19 -.0006759530401363 .0009303695435312 -1 0 0 2e-4 0 0 1 14 448 68 451 ?45
2 445 453 14 446 +0 0 452 445 230 51 450 394 0 452 446 454 0 +300000000000007e-1
9 .0006759530401363 .0009303695435312 -1 0 0 2e-4 0 0 1 14 452 73 455 ?456 448 4
57 14 450 +0 0 456 448 230 51 454 395 0 456 450 458 0 +300000000000007e-19 .0010
93714993739 -.0003553695435312 -1 0 0 2e-4 0 0 1 14 456 78 459 ?460 452 461 14 4
54 +0 0 460 452 230 51 458 396 0 460 454 462 0 +300000000000007e-19 0 -.00115 -1
 0 0 2e-4 0 0 1 14 460 83 463 ?464 456 465 14 458 +0 0 464 456 230 51 462 397 0
 464 458 466 0 +799999999999988e-19 0 0 -1 0 0 9e-4 0 0 1 14 464 88 467 ?468 460
 469 14 462 -0 0 468 460 230 50 466 398 0 468 462 470 0 +.0013 .001924 .00192532
5451786 1 0 0 0 -1 0 14 468 93 471 ?472 464 473 14 466 +0 0 472 464 230 50 470 4
04 0 474 466 475 0 +8e-5 936e-6 -.0009369378063912 -1 0 0 0 -1 0 14 474 142 476
 ?477 478 479 14 470 +0 0 477 478 230 51 475 405 0 477 470 480 0 +.0011000000000
00076 0 .001 1 0 0 25e-5 0 0 -1 14 477 147 481 ?482 474 483 14 475 -0 0 482 474
 230 51 480 406 0 482 475 484 0 +.001100000000000076 -.001 0 1 0 0 25e-5 0 0 -1
 14 482 152 485 ?486 477 487 14 480 -0 0 486 477 230 51 484 407 0 486 480 488 0
 +.001100000000000076 0 -.001 1 0 0 25e-5 0 0 -1 14 486 157 489 ?490 482 491 14
 484 -0 0 490 482 230 51 488 408 0 490 484 492 0 +.001100000000000076 .001 0 1 0
 0 25e-5 0 0 -1 14 490 162 493 ?494 486 495 14 488 -0 0 494 486 230 50 492 409 0
 494 488 496 0 +-5e-5 -.001272663593489 .001107176934402 -1 0 0 0 1 0 14 494 167
 497 ?498 490 499 14 492 +0 0 498 490 230 50 496 410 0 498 492 500 0 +-5e-5 -.00
1272663593489 .001107176934402 -1 0 0 0 1 0 14 498 169 501 ?502 494 503 14 496 +
0 0 502 494 230 50 500 411 0 502 496 504 0 +-5e-5 -.001272663593489 .00110717693
4402 -1 0 0 0 1 0 14 502 171 505 ?506 498 507 14 500 +0 0 506 498 230 50 504 412
 0 506 500 508 0 +-5e-5 -.001272663593489 .001107176934402 -1 0 0 0 1 0 14 506 1
73 509 ?510 502 511 14 504 +0 0 510 502 230 50 508 413 0 510 504 512 0 +-5e-5 -.
001272663593489 .001107176934402 -1 0 0 0 1 0 14 510 175 513 ?514 506 515 14 508
 +0 0 514 506 230 51 512 414 0 514 508 516 0 +799999999999988e-19 0 0 -1 0 0 6e-
4 0 0 1 14 514 177 517 ?518 510 519 14 512 +0 0 518 510 230 50 516 415 0 518 512
 520 0 +.0011 -.001300541820943 .0013 1 0 0 0 0 -1 14 518 182 521 ?522 514 523 1
4 516 +0 0 522 514 230 50 520 416 0 522 516 524 0 +.0011 -.001300541820943 .0013
 1 0 0 0 0 -1 14 522 184 525 ?526 518 527 14 520 +0 0 526 518 230 50 524 417 0 5
26 520 528 0 +.0011 -.001300541820943 .0013 1 0 0 0 0 -1 14 526 186 529 ?414 522
 530 14 524 +0 0 414 522 230 50 528 418 0 414 524 416 0 +.0011 -.001300541820943
 .0013 1 0 0 0 0 -1 14 414 188 531 ?407 526 532 14 528 +0 0 407 526 230 50 416 4
19 0 407 528 409 0 +3e-5 .001872 -.001872 -1 0 0 0 -1 0 81 1 531 2778 167 414 53
3 0 529 534 535 15 532 189 0 536 414 0 17 536 0 532 536 536 0 391 388 0 0 -17 39
1 0 495 391 391 0 536 388 0 0 +15 495 163 0 391 490 537 15 537 166 0 538 490 0 1
7 538 0 537 538 538 0 539 540 0 0 -17 539 0 541 539 539 0 538 540 0 0 +16 540 10
4 0 ?539 542 323 356 0 0 7 16 542 101 0 ?543 544 540 545 0 0 7 16 323 62 0 ?239
 540 238 319 0 0 7 31 356 364 0 540 545 360 546 +.001299999999999934 .001 0 -1 0
 0 0 0 -1 25e-5 31 545 363 0 542 350 356 547 +.001299999999999934 0 -.001 -1 0 0
 0 0 -1 25e-5 134 360 365 0 392 356 548 549 +550 551 141 546 353 546 546 356 16
 392 110 0 ?247 388 552 360 0 0 7 134 548 366 0 552 360 553 554 +555 556 141 549
 357 549 549 360 136 550 3 10 3 5 1 FFF1 557 558 559 135 551 2 0 45 30 557 -5e-5
 -.000963714993739072 -.0003553695434972685 -5e-5 -.000963714993695452 -.0003890
23166729015 -5e-5 -.000978719118616594 -.0004238045356328605 -5e-5 -.00102486310
551346 -.000470782314297509 -5e-5 -.00106079147761698 -.000485074753624274 -5e-5
 -.001126638509521642 -.000485664333437356 -5e-5 -.00116214998584067 -.000470365
418653606 -5e-5 -.001209127764505324 -.000424221431756716 -5e-5 -.00122371499369
2584 -.000390637315716621 -5e-5 -.001223714993739088 -.0003553695436330025 127 5
 558 4 2 2 2 4 128 5 559 0 .25 .5 .75 1 16 552 113 0 ?560 392 561 548 0 0 7 134
 553 367 0 561 548 562 563 +564 565 141 554 359 554 554 548 136 555 3 10 3 5 1 F
FF1 566 567 568 135 556 2 0 45 30 566 -5e-5 -.001223714993739088 -.0003553695436
330025 -5e-5 -.001223714993783338 -.0003217159203188075 -5e-5 -.0012087108688495
4 -.000286934551401686 -5e-5 -.001162566881917502 -.0002399567727315795 -5e-5 -.
00112663850979059 -.0002256643334160855 -5e-5 -.001060791477857056 -.00022507475
3645485 -5e-5 -.00102528000153443 -.000240373668465325 -5e-5 -.00097830222289444
2 -.0002865176554280245 -5e-5 -.000963714993738585 -.0003201017715001855 -5e-5 -
.000963714993739072 -.0003553695434972685 127 5 567 4 2 2 2 4 128 5 568 0 .25 .5
 .75 1 133 359 2179 0 7 357 569 0 +548 -5e-5 -.001223714993739088 -.000355369543
6330025 -5e-5 -.000963714993739072 -.0003553695434972685 0 1 133 569 2207 0 7 35
9 570 0 +553 -5e-5 -.000545953040136292 .000930369543565135 -5e-5 -.000805953040
136308 .000930369543429387 0 1 133 570 2209 0 7 569 571 0 +562 -5e-5 -.000805953
040136308 .000930369543429387 -5e-5 -.000545953040136292 .000930369543565135 0 1
 133 571 2243 0 7 570 572 0 +573 -5e-5 .000805953040136308 .000930369543565135 -
5e-5 .000545953040136292 .000930369543429387 0 1 134 562 368 0 574 553 573 575 +
576 577 16 574 120 0 ?578 561 579 562 0 0 7 134 573 369 0 579 562 580 581 +582 5
83 141 575 570 575 575 562 136 576 3 10 3 5 1 FFF1 584 585 586 135 577 2 0 45 30
 584 -5e-5 -.000805953040136308 .000930369543429387 -5e-5 -.000805953040180243 .
000964023166743465 -5e-5 -.000790948915246486 .000998804535660495 -5e-5 -.000744
804928314618 .00104578231433045 -5e-5 -.000708876556187804 .001060074753645912 -
5e-5 -.000643029524254479 .001060664333416518 -5e-5 -.000607518047931956 .001045
365418596726 -5e-5 -.000560540269292108 .000999221431634185 -5e-5 -.000545953040
136285 .00096563731556211 -5e-5 -.000545953040136292 .000930369543565135 127 5 5
85 4 2 2 2 4 128 5 586 0 .25 .5 .75 1 16 579 124 0 ?259 574 587 573 0 0 7 134 58
0 370 0 587 573 588 589 +590 591 141 581 571 581 581 573 136 582 3 10 3 5 1 FFF1
 592 593 594 135 583 2 0 45 30 592 -5e-5 .000805953040136308 .000930369543565135
 -5e-5 .000805953040180243 .000896715920333269 -5e-5 .00079094891525906 .0008619
34551429323 -5e-5 .000744804928362041 .000814956772764529 -5e-5 .000708876556258
403 .000800664333437729 -5e-5 .000643029524353574 .000800074753624641 -5e-5 .000
607518048034421 .000815373668408437 -5e-5 .000560540269369631 .00086151765530546
4 -5e-5 .00054595304018232 .000895101771345644 -5e-5 .000545953040136292 .000930
369543429387 127 5 593 4 2 2 2 4 128 5 594 0 .25 .5 .75 1 16 587 127 0 ?595 579
 596 580 0 0 7 134 588 371 0 596 580 597 598 +599 600 141 589 572 589 589 580 13
6 590 3 10 3 5 1 FFF1 601 602 603 135 591 2 0 45 30 601 -5e-5 .00054595304013629
2 .000930369543429387 -5e-5 .000545953040092357 .000964023166743468 -5e-5 .00056
0957165026098 .000998804535660484 -5e-5 .000607101151957999 .00104578231433046 -
5e-5 .000643029524084803 .00106007475364591 -5e-5 .000708876556018114 .001060664
33341652 -5e-5 .000744388032340636 .001045365418596736 -5e-5 .000791365810980501
 .000999221431634174 -5e-5 .000805953040136315 .000965637315562103 -5e-5 .000805
953040136308 .000930369543565135 127 5 602 4 2 2 2 4 128 5 603 0 .25 .5 .75 1 13
3 572 2245 0 7 571 604 0 +580 -5e-5 .000545953040136292 .000930369543429387 -5e-
5 .000805953040136308 .000930369543565135 0 1 133 604 2280 0 7 572 605 0 +588 -5
e-5 .001223714993738928 -.0003553695434972615 -5e-5 .000963714993739232 -.000355
369543633024 0 1 133 605 2282 0 7 604 380 0 +597 -5e-5 .000963714993739232 -.000
355369543633024 -5e-5 .001223714993738928 -.0003553695434972615 0 1 133 380 2311
 0 7 605 378 0 +367 -5e-5 .0001300000000000184 -.001149999999965824 -5e-5 -.0001
300000000000182 -.001150000000102052 0 1 134 597 372 0 606 588 367 607 +608 609
 16 606 134 0 ?610 596 611 597 0 0 7 134 367 373 0 611 597 361 612 +613 614 141
 607 605 607 607 597 136 608 3 10 3 5 1 FFF1 615 616 617 135 609 2 0 45 30 615 -
5e-5 .000963714993739232 -.000355369543633024 -5e-5 .000963714993695453 -.000321
7159203190355 -5e-5 .00097871911862916 -.0002869345514021315 -5e-5 .001024863105
560876 -.0002399567727323155 -5e-5 .001060791477687586 -.000225664333416894 -5e-
5 .001126638509620694 -.0002250747536462755 -5e-5 .001162149985943116 -.00024037
36684660125 -5e-5 .00120912776458283 -.0002865176554284165 -5e-5 .00122371499373
8614 -.000320101771500388 -5e-5 .001223714993738928 -.0003553695434972615 127 5
 616 4 2 2 2 4 128 5 617 0 .25 .5 .75 1 16 611 138 0 ?270 606 366 367 0 0 7 141
 612 380 612 612 367 136 613 3 10 3 5 1 FFF1 618 619 620 135 614 2 0 45 30 618 -
5e-5 .0001300000000000184 -.001149999999965824 -5e-5 .0001300000000440642 -.0011
83653623197538 -5e-5 .000114995875122975 -.00121843499210154 -5e-5 6885188822611
52e-19 -.00126541277076647 -5e-5 329235161224951e-19 -.001279705210093384 -5e-5
 -329235157823184e-19 -.001280294789906682 -5e-5 -684349921015355e-19 -.00126499
587512298 -5e-5 -.000115412770766472 -.00121885188822611 -5e-5 -.000129999999953
8894 -.001185267772185954 -5e-5 -.0001300000000000182 -.001150000000102052 127 5
 619 4 2 2 2 4 128 5 620 0 .25 .5 .75 1 17 270 0 515 621 621 269 268 611 0 622 +
16 366 141 0 ?621 611 397 361 0 0 7 17 621 0 515 270 270 266 622 366 0 0 +15 515
 176 0 270 510 0 17 622 0 623 268 268 269 621 366 0 0 -15 623 137 0 268 478 0 17
 268 0 623 622 622 266 270 611 0 621 -14 478 135 534 ?474 624 625 14 224 -0 0 47
4 624 230 81 1 534 2780 167 478 626 0 531 627 628 14 624 128 627 ?478 629 630 14
 631 -0 0 478 629 230 15 625 136 0 342 478 623 54 224 430 0 478 631 15 0 -2e-5 0
 -.00115 -1 0 0 .00013000000000002 7e-5 0 0 1 54 631 429 0 624 632 224 0 -2e-5 .
001093714993739 -.0003553695435312 -1 0 0 .0001299999999996024 7e-5 0 0 1 54 632
 428 0 629 633 631 0 -2e-5 .0006759530401363 .0009303695435312 -1 0 0 .000130000
000000002 7e-5 0 0 1 14 629 121 634 ?624 635 636 14 632 -0 0 624 635 230 54 633
 427 0 635 637 632 0 -2e-5 -.0006759530401363 .0009303695435312 -1 0 0 .00013000
00000000022 7e-5 0 0 1 14 635 114 638 ?629 472 639 14 633 -0 0 629 472 230 54 63
7 426 0 472 640 633 0 -1999999999999965e-20 -.001093714993739 -.0003553695435312
 -1 -378596889937237e-33 846186420170355e-32 .000130000000000402 7e-5 8461864201
70355e-32 0 1 14 472 107 641 ?635 468 642 14 637 -0 0 635 468 230 54 640 425 0 4
43 643 637 0 -.00115 0 0 1 2419067236898755e-34 542095688803546e-31 .00184999999
999961 15e-5 542095688803546e-31 0 -1 14 443 56 644 ?445 439 645 14 640 -0 0 445
 439 230 54 643 424 0 426 428 640 0 -1e-4 0 0 1 0 0 .00189999999999958 1e-4 0 0
 -1 14 426 21 646 ?432 420 647 14 643 -0 0 432 420 230 54 428 423 0 420 418 643
 0 -499999999999991e-19 0 0 -1 0 0 .001849999999999865 5e-5 0 0 1 50 418 422 0 2
79 409 428 0 +-5e-5 2132e-7 -.0002136452402456 -1 0 0 0 -1 0 14 279 207 648 ?0 2
23 278 14 418 +0 0 0 223 230 81 1 648 2794 167 279 649 0 646 0 650 81 1 649 640
 153 279 0 648 651 0 652 81 1 646 2792 167 426 653 0 644 648 654 82 1 650 999999
 81 1 653 605 153 426 0 646 655 656 657 81 1 644 2790 167 443 658 0 641 646 659
 82 1 654 999999 81 1 658 609 153 443 0 644 660 661 662 81 1 641 2788 167 472 66
3 0 638 644 664 82 1 659 999999 81 1 663 617 153 472 0 641 665 666 667 81 1 638
 2786 167 635 666 0 634 641 668 82 1 664 999999 81 1 666 618 153 635 0 638 663 6
69 670 81 1 634 2784 167 629 669 0 627 638 671 82 1 668 999999 81 1 669 619 153
 629 0 634 666 672 673 81 1 627 2782 167 624 672 0 534 634 674 82 1 671 999999 8
1 1 672 620 153 624 0 627 669 626 675 82 1 674 999999 81 1 626 621 153 478 0 534
 672 676 677 83 3 675 1 1 1 81 1 676 622 153 474 0 476 626 678 679 83 3 677 1 1
 1 81 1 476 2750 167 474 676 0 471 481 680 81 1 678 623 153 477 0 481 676 681 68
2 83 3 679 0 1 0 81 1 481 2752 167 477 678 0 476 485 683 81 1 681 624 153 482 0
 485 678 684 685 83 3 682 1 1 1 81 1 485 2754 167 482 681 0 481 489 686 81 1 684
 625 153 486 0 489 681 687 688 83 3 685 1 1 1 81 1 489 2756 167 486 684 0 485 49
3 689 81 1 687 626 153 490 0 493 684 690 691 83 3 688 1 1 1 81 1 493 2758 167 49
0 687 0 489 497 692 81 1 690 627 153 494 0 497 687 693 694 83 3 691 1 1 1 81 1 4
97 2760 167 494 690 0 493 501 695 81 1 693 628 153 498 0 501 690 696 697 83 3 69
4 1 1 1 81 1 501 2762 167 498 693 0 497 505 698 81 1 696 629 153 502 0 505 693 6
99 700 83 3 697 1 1 1 81 1 505 2764 167 502 696 0 501 509 701 81 1 699 630 153 5
06 0 509 696 702 703 83 3 700 1 1 1 81 1 509 2766 167 506 699 0 505 513 704 81 1
 702 631 153 510 0 513 699 705 706 83 3 703 1 1 1 81 1 513 2768 167 510 702 0 50
9 517 707 81 1 705 632 153 514 0 517 702 708 709 83 3 706 1 1 1 81 1 517 2770 16
7 514 705 0 513 521 710 81 1 708 633 153 518 0 521 705 711 712 83 3 709 1 1 1 81
 1 521 2772 167 518 708 0 517 525 713 81 1 711 634 153 522 0 525 708 714 715 83
 3 712 1 1 1 81 1 525 2774 167 522 711 0 521 529 716 81 1 714 635 153 526 0 529
 711 533 717 83 3 715 1 1 1 81 1 529 2776 167 526 714 0 525 531 718 81 1 533 636
 153 414 0 531 714 719 720 83 3 717 1 1 1 81 1 719 637 153 407 0 413 533 410 721
 83 3 720 1 1 1 81 1 413 2724 167 407 719 0 411 419 722 81 1 410 638 153 405 0 4
06 719 651 723 83 3 721 0 1 0 81 1 651 639 153 223 0 411 410 649 724 83 3 723 1
 1 1 81 1 411 2722 167 223 651 0 406 413 725 83 3 724 1 1 1 82 1 725 999999 82 1
 722 999999 82 1 718 999999 82 1 716 999999 82 1 713 999999 82 1 710 999999 82 1
 707 999999 82 1 704 999999 82 1 701 999999 82 1 698 999999 82 1 695 999999 82 1
 692 999999 82 1 689 999999 82 1 686 999999 82 1 683 999999 81 1 471 2748 167 46
8 665 0 467 476 726 82 1 680 999999 81 1 665 616 153 468 0 471 727 663 728 81 1
 467 2746 167 464 727 0 463 471 729 82 1 726 999999 81 1 727 615 153 464 0 467 7
30 665 731 81 1 463 2744 167 460 730 0 459 467 732 82 1 729 999999 81 1 730 614
 153 460 0 463 733 727 734 81 1 459 2742 167 456 733 0 455 463 735 82 1 732 9999
99 81 1 733 613 153 456 0 459 736 730 737 81 1 455 2740 167 452 736 0 451 459 73
8 82 1 735 999999 81 1 736 612 153 452 0 455 739 733 740 81 1 451 2738 167 448 7
39 0 447 455 741 82 1 738 999999 81 1 739 611 153 448 0 451 661 736 742 81 1 447
 2736 167 445 661 0 442 451 743 82 1 741 999999 81 1 661 610 153 445 0 447 658 7
39 744 81 1 442 2734 167 439 660 0 438 447 745 82 1 743 999999 81 1 660 608 153
 439 0 442 746 658 747 81 1 438 2732 167 435 746 0 434 442 748 82 1 745 999999 8
1 1 746 607 153 435 0 438 656 660 749 81 1 434 2730 167 432 656 0 424 438 750 82
 1 748 999999 81 1 656 606 153 432 0 434 653 746 751 81 1 424 2728 167 420 655 0
 419 434 752 82 1 750 999999 81 1 655 604 153 420 0 424 423 653 753 82 1 752 999
999 81 1 423 603 153 221 0 419 0 655 754 83 3 753 1 1 1 83 3 754 1 1 1 83 3 751
 1 1 1 83 3 749 1 1 1 83 3 747 0 1 0 83 3 744 1 1 1 83 3 742 1 1 1 83 3 740 1 1
 1 83 3 737 1 1 1 83 3 734 1 1 1 83 3 731 1 1 1 83 3 728 1 1 1 83 3 673 1 1 1 83
 3 670 1 1 1 83 3 667 1 1 1 83 3 662 1 1 1 83 3 657 1 1 1 83 3 652 1 1 1 15 647
 22 0 755 426 756 17 755 0 647 755 755 0 309 306 0 0 -15 756 25 0 757 426 0 17 7
57 0 756 757 757 0 758 225 0 0 +17 758 0 430 758 758 0 757 225 0 0 -16 225 12 0
 ?757 19 302 16 0 0 7 15 430 11 0 758 221 0 17 309 0 759 309 309 0 755 306 0 0 +
15 759 35 0 309 435 0 15 645 57 0 760 443 235 17 760 0 645 760 760 0 761 348 0 0
 +15 235 58 0 232 443 0 17 761 0 440 761 761 0 760 348 0 0 -16 348 33 0 ?760 311
 344 301 0 0 7 16 311 28 0 ?762 763 348 307 0 0 7 31 301 346 0 348 307 764 765 +
.001149999999999966 0 0 1 0 0 0 -1 0 .002 31 764 347 0 310 301 766 767 +30000000
0000007e-19 -.001093714993739 -.0003553695435312 1 0 0 0 0 1 .0001999999999996 1
41 765 298 765 765 301 16 310 38 0 ?768 306 769 764 0 0 7 31 766 348 0 769 764 7
70 771 +300000000000007e-19 -.0006759530401363 .0009303695435312 1 0 0 0 0 1 2e-
4 141 767 772 767 767 764 133 772 1483 0 7 773 774 0 +764 300000000000007e-19 -.
001093714993739 -.0001553695435316 300000000000007e-19 -.001093714993739 -.00015
53695435316 0 6.28318530717959 133 773 1465 0 7 775 772 0 +307 3e-5 0 .0018 3e-5
 0 .0018 0 6.28318530717959 133 774 1487 0 7 772 776 0 +766 300000000000007e-19
 -.0006759530401363 .0011303695435312 300000000000007e-19 -.0006759530401363 .00
11303695435312 0 6.28318530717959 133 776 1491 0 7 774 777 0 +770 30000000000000
7e-19 .0006759530401363 .0011303695435312 300000000000007e-19 .0006759530401363
 .0011303695435312 0 6.28318530717959 133 777 1495 0 7 776 778 0 +779 3000000000
00007e-19 .001093714993739 -.0001553695435312 300000000000007e-19 .0010937149937
39 -.0001553695435312 0 6.28318530717959 31 770 349 0 780 766 779 781 +300000000
000007e-19 .0006759530401363 .0009303695435312 1 0 0 0 0 1 2e-4 16 780 44 0 ?782
 769 783 770 0 0 7 31 779 350 0 783 770 784 785 +300000000000007e-19 .0010937149
93739 -.0003553695435312 1 0 0 0 0 1 2e-4 141 781 776 781 781 770 16 783 47 0 ?7
86 780 787 779 0 0 7 31 784 351 0 787 779 788 789 +300000000000007e-19 0 -.00115
 1 0 0 0 0 1 2e-4 141 785 777 785 785 779 16 787 50 0 ?790 783 763 784 0 0 7 31
 788 352 0 763 784 324 791 +3000000000000125e-20 0 0 1 0 0 0 0 1 9e-4 141 789 77
8 789 789 784 133 778 1499 0 7 777 792 0 +784 300000000000007e-19 0 -95e-5 30000
0000000007e-19 0 -95e-5 0 6.28318530717959 133 792 1503 0 7 778 793 0 +788 30000
00000000125e-20 0 9e-4 3000000000000125e-20 0 9e-4 0 6.28318530717959 133 793 19
05 0 7 792 794 0 +319 .0013 .00184999999999977 -2342696620461635e-31 .0013 -.001
84999999999977 3952520006168115e-31 0 1 133 794 1906 0 7 793 795 0 +345 .0012999
99999999934 0 75e-5 .001299999999999934 0 75e-5 0 6.28318530717959 133 795 1936
 0 7 794 796 0 +324 .0013 -.00184999999999977 3952520006168115e-31 .0013 .001849
99999999977 -2342696620461635e-31 0 1 133 796 1937 0 7 795 355 0 +350 .001299999
999999934 -.001 -25e-5 .001299999999999934 -.001 -25e-5 0 6.28318530717959 134 3
24 353 0 238 788 319 797 +798 799 16 238 59 0 ?237 323 318 324 0 0 7 141 797 795
 797 797 324 136 798 3 18 3 9 1 FFF1 800 801 802 135 799 2 0 45 54 800 .0013 -.0
0184999999999977 3952520006168115e-31 .0013 -.00184999999999962 -.00024257468389
63735 .0013 -.001801801167908385 -.000484161985174389 .0013 -.001616553102382975
 -.000931766714575433 .0013 -.001479366450377904 -.001136826803897548 .0013 -.00
113692864001234 -.00147946828649159 .0013 -.000931711601267875 -.001616420047087
545 .0013 -.000484217098483389 -.00180193422320322 .0013 -.0002422121068517415 -
.001849927990992655 .0013 .00024221210685096 -.00185007200900659 .0013 .00048416
1985174186 -.001801801167908455 .0013 .000931766714575635 -.001616553102382905 .
0013 .00113682680389726 -.001479366450378288 .0013 .001479468286491878 -.0011369
28640011956 .0013 .00161642004708769 -.000931711601267392 .0013 .001801934223203
075 -.000484217098483871 .0013 .00184999999999962 -.0002433151326472695 .0013 .0
0184999999999977 -2342696620461635e-31 127 9 801 4 2 2 2 2 2 2 2 4 128 9 802 0 .
125 .25 .375 .5 .625 .75 .875 1 17 237 0 803 239 239 233 232 238 0 236 +15 803 1
06 0 239 468 0 17 239 0 803 237 237 20 236 323 0 0 +17 236 0 235 232 232 233 239
 323 0 0 -133 355 1938 0 7 796 353 0 +545 .001299999999999934 0 -.00125 .0012999
99999999934 0 -.00125 0 6.28318530717959 31 350 362 0 544 345 545 804 +.00129999
9999999934 -.001 0 -1 0 0 0 0 -1 25e-5 16 544 98 0 ?805 349 542 350 0 0 7 141 80
4 796 804 804 350 17 805 0 806 805 805 0 807 544 0 0 +16 349 95 0 ?808 344 544 3
45 0 0 7 17 808 0 473 808 808 0 809 349 0 0 +15 473 94 0 808 468 806 17 809 0 81
0 809 809 0 808 349 0 0 -15 810 151 0 809 477 0 15 806 97 0 805 468 811 15 811 1
00 0 543 468 541 17 543 0 811 543 543 0 812 542 0 0 +15 541 103 0 539 468 803 17
 812 0 813 812 812 0 543 542 0 0 -15 813 161 0 812 486 0 17 807 0 814 807 807 0
 805 544 0 0 -15 814 156 0 807 482 0 16 763 53 0 ?815 787 311 788 0 0 7 141 791
 792 791 791 788 17 815 0 816 815 815 0 817 763 0 0 +15 816 52 0 815 439 818 17
 817 0 469 817 817 0 815 763 0 0 -15 469 89 0 817 464 819 15 819 90 0 347 464 0
 17 347 0 819 347 347 0 820 344 0 0 +17 820 0 821 820 820 0 347 344 0 0 -15 821
 146 0 820 474 0 15 818 55 0 762 439 0 17 762 0 818 762 762 0 822 311 0 0 +17 82
2 0 436 822 822 0 762 311 0 0 -15 436 27 0 822 432 823 15 823 30 0 305 432 0 17
 305 0 823 305 305 0 824 302 0 0 +17 824 0 825 824 824 0 305 302 0 0 -15 825 18
 0 824 420 0 17 790 0 826 790 790 0 827 787 0 0 +15 826 49 0 790 439 816 17 827
 0 465 827 827 0 790 787 0 0 -15 465 84 0 827 460 828 15 828 85 0 829 460 0 17 8
29 0 828 829 829 0 342 339 0 0 -17 342 0 625 342 342 0 829 339 0 0 +17 786 0 830
 786 786 0 831 783 0 0 +15 830 46 0 786 439 826 17 831 0 461 831 831 0 786 783 0
 0 -15 461 79 0 831 456 832 15 832 80 0 833 456 0 17 833 0 832 833 833 0 834 335
 0 0 -17 834 0 630 834 834 0 833 335 0 0 +16 335 81 0 ?834 331 339 332 0 0 7 15
 630 129 0 834 624 835 15 835 130 0 262 624 0 17 262 0 835 836 836 260 265 596 0
 610 -17 836 0 835 262 262 263 610 606 0 0 -17 265 0 511 610 610 263 262 596 0 8
36 +16 596 131 0 ?265 587 606 588 0 0 7 17 610 0 511 265 265 260 836 606 0 0 +15
 511 174 0 265 506 0 17 782 0 837 782 782 0 838 780 0 0 +16 769 41 0 ?839 310 78
0 766 0 0 7 17 839 0 840 839 839 0 841 769 0 0 +15 840 40 0 839 439 837 17 841 0
 453 841 841 0 839 769 0 0 -15 453 69 0 841 448 842 15 842 70 0 843 448 0 17 843
 0 842 843 843 0 330 322 0 0 -17 330 0 639 330 330 0 843 322 0 0 +15 639 115 0 3
30 635 844 15 844 116 0 250 635 0 17 250 0 844 845 845 248 253 561 0 578 -17 845
 0 844 250 250 251 578 574 0 0 -17 253 0 503 578 578 251 250 561 0 845 +16 561 1
17 0 ?253 552 574 553 0 0 7 17 578 0 503 253 253 248 845 574 0 0 +15 503 170 0 2
53 498 0 15 837 43 0 782 439 830 17 838 0 457 838 838 0 782 780 0 0 -15 457 74 0
 838 452 846 15 846 75 0 847 452 0 17 847 0 846 847 847 0 334 331 0 0 -17 334 0
 636 334 334 0 847 331 0 0 +15 636 122 0 334 629 848 15 848 123 0 256 629 0 17 2
56 0 848 849 849 254 259 579 0 595 -17 849 0 848 256 256 257 595 587 0 0 -17 259
 0 507 595 595 257 256 579 0 849 +17 595 0 507 259 259 254 849 587 0 0 +15 507 1
72 0 259 502 0 133 775 1333 0 7 850 773 0 +226 0 0 .001849999999999925 0 0 .0018
49999999999925 0 6.28318530717959 133 850 1332 0 7 0 775 0 +16 -1355252715607026
e-36 0 -.00189999999999978 -1355252715607026e-36 0 -.00189999999999978 0 6.28318
530717959 141 771 774 771 771 766 17 768 0 444 768 768 0 851 310 0 0 +15 444 37
 0 768 439 840 17 851 0 449 851 851 0 768 310 0 0 -15 449 64 0 851 445 852 15 85
2 65 0 853 445 0 17 853 0 852 853 853 0 321 318 0 0 -17 321 0 642 321 321 0 853
 318 0 0 +15 642 108 0 321 472 854 15 854 109 0 244 472 0 17 244 0 854 855 855 2
40 247 392 0 560 -17 855 0 854 244 244 245 560 552 0 0 -17 247 0 499 560 560 245
 244 392 0 855 +17 560 0 499 247 247 240 855 552 0 0 +15 499 168 0 247 494 0 15
 440 32 0 761 435 759 82 1 628 999999 141 598 604 598 598 588 136 599 3 10 3 5 1
 FFF1 856 857 858 135 600 2 0 45 30 856 -5e-5 .001223714993738928 -.000355369543
4972615 -5e-5 .001223714993783338 -.0003890231667292445 -5e-5 .00120871086886211
2 -.000423804535633294 -5e-5 .00116256688196494 -.000470782314298232 -5e-5 .0011
26638509861202 -.000485074753625071 -5e-5 .001060791477956174 -.0004856643334381
59 -5e-5 .001025280001636924 -.000470365418654324 -5e-5 .000978302222971976 -.00
0424221431757154 -5e-5 .000963714993784625 -.0003906373157168675 -5e-5 .00096371
4993739232 -.000355369543633024 127 5 857 4 2 2 2 4 128 5 858 0 .25 .5 .75 1 141
 563 569 563 563 553 136 564 3 10 3 5 1 FFF1 859 860 861 135 565 2 0 45 30 859 -
5e-5 -.000545953040136292 .000930369543565135 -5e-5 -.000545953040092357 .000896
715920333267 -5e-5 -.000560957165013538 .000861934551429325 -5e-5 -.000607101151
910562 .000814956772764528 -5e-5 -.000643029524014198 .000800664333437729 -5e-5
 -.000708876555919025 .000800074753624641 -5e-5 -.000744388032238173 .0008153736
68408436 -5e-5 -.000791365810902975 .000861517655305466 -5e-5 -.0008059530400902
8 .000895101771345656 -5e-5 -.000805953040136308 .000930369543429387 127 5 860 4
 2 2 2 4 128 5 861 0 .25 .5 .75 1 141 547 355 547 547 545 82 1 535 999999 15 530
 187 0 862 526 0 17 862 0 530 862 862 0 387 385 0 0 -17 387 0 491 387 387 0 862
 385 0 0 +15 491 158 0 387 486 813 15 527 185 0 863 522 0 17 863 0 527 863 863 0
 864 374 0 0 -17 864 0 487 864 864 0 863 374 0 0 +16 374 154 0 ?864 365 385 371
 0 0 7 15 487 153 0 864 482 814 15 523 183 0 865 518 0 17 865 0 523 865 865 0 37
3 365 0 0 -17 373 0 483 373 373 0 865 365 0 0 +15 483 148 0 373 477 810 15 519 1
78 0 866 514 867 17 866 0 519 866 866 0 396 393 0 0 -15 867 181 0 868 514 0 17 8
68 0 867 868 868 0 364 343 0 0 -17 364 0 479 364 364 0 868 343 0 0 +15 479 143 0
 364 474 821 17 396 0 869 396 396 0 866 393 0 0 +15 869 194 0 396 407 0 17 429 0
 421 429 429 0 231 19 0 0 -17 231 0 427 231 231 0 429 19 0 0 +15 427 17 0 231 42
0 825 82 1 425 999999 17 417 0 408 417 417 0 399 397 0 0 -17 399 0 415 399 399 0
 417 397 0 0 +15 415 191 0 399 407 869 82 1 412 999999 141 376 379 376 376 371 1
41 368 378 368 368 361 136 369 3 10 3 5 1 FFF1 870 871 872 135 370 2 0 45 30 870
 -5e-5 -.0001300000000000182 -.001150000000102052 -5e-5 -.0001300000000440642 -.
001116346376788126 -5e-5 -.000114995875110422 -.001081565007871054 -5e-5 -688518
881786719e-19 -.00103458722920094 -5e-5 -3292351605191515e-20 -.0010202947898853
72 -5e-5 3292351588143345e-20 -.001019705210114562 -5e-5 684349922039904e-19 -.0
01035004124934228 -5e-5 .000115412770844006 -.001081148111896672 -5e-5 .00013000
0000000033 -.001114732227968942 -5e-5 .0001300000000000184 -.001149999999965824
 127 5 871 4 2 2 2 4 128 5 872 0 .25 .5 .75 1 141 351 794 351 351 345 141 337 33
8 337 337 332 141 325 793 325 325 319 136 326 3 18 3 9 1 FFF1 873 874 875 135 32
7 2 0 45 54 873 .0013 .00184999999999977 -2342696620461635e-31 .0013 .0018499999
99999625 .0002425746838961805 .0013 .001801801167908385 .000484161985174328 .001
3 .001616553102383015 .000931766714575401 .0013 .00147936645037807 .001136826803
897382 .0013 .001136928640012316 .001479468286491614 .0013 .000931711601268343 .
00161642004708741 .0013 .0004842170984832 .00180193422320324 .0013 .000242212106
851824 .0018499279909927 .0013 -.00024221210685064 .00185007200900654 .0013 -.00
0484161985175012 .001801801167908105 .0013 -.000931766714574344 .001616553102383
45 .0013 -.001136826803897052 .001479366450378494 .0013 -.00147946828649166 .001
136928640012174 .0013 -.001616420047087285 .000931711601268595 .0013 -.001801934
22320321 .00048421709848332 .0013 -.00184999999999962 .0002433151326471365 .0013
 -.00184999999999977 3952520006168115e-31 127 9 874 4 2 2 2 2 2 2 2 4 128 9 875
 0 .125 .25 .375 .5 .625 .75 .875 1 141 312 773 312 312 307 141 290 775 290 290
 226 141 287 295 287 287 282 136 288 3 28 3 14 1 FFF1 876 877 878 135 289 2 0 45
 84 876 -5e-5 -.0002050000000000255 -2298280177824055e-29 -5e-5 -.00020500000001
49105 2653458754039845e-20 -5e-5 -.00019911461735934 543782357794501e-19 -5e-5 -
.000184535647633538 904860374034082e-19 -5e-5 -.000178402618180544 .000102046236
5518436 -5e-5 -.0001635898135191035 .00012421516539628 -5e-5 -.00015405257995627
85 .0001356968471589522 -5e-5 -.0001358612004926876 .000154216932965177 -5e-5 -.
0001257711234198302 .0001625501555883035 -5e-5 -.000103602194591991 .00017736296
02745835 -5e-5 -903970903202553e-19 .0001843209097788345 -5e-5 -665031171616756e
-19 .0001944696984629755 -5e-5 -539921152365208e-19 .000198307286957272 -5e-5 -2
784208069448145e-20 .0002035088522503185 -5e-5 -1297946313463698e-20 .0002048837
84758097 -5e-5 129794629049426e-19 .0002051162152419925 -5e-5 2600670305180435e-
20 .00020387393154703 -5e-5 52156737599672e-18 .0001986723662832835 -5e-5 664141
696541025e-19 .000194254960784073 -5e-5 904860374034086e-19 .0001845356476335375
 -5e-5 .0001020462365518442 .0001784026181805435 -5e-5 .0001242151653962806 .000
163589813519103 -5e-5 .000135696847158952 .0001540525799562785 -5e-5 .0001634769
7586829 .0001267655107608914 -5e-5 .0001789921735503905 .0001029428910433078 -5e
-5 .00019979843469142 539573164386233e-19 -5e-5 .0002049999999844665 27807281896
5838e-19 -5e-5 .0002050000000000255 68908292903659e-27 127 14 877 4 2 2 2 2 2 2
 2 2 2 2 2 2 4 128 14 878 0 .125 .1875 .25 .3125 .375 .4375 .5 .5625 .625 .6875
 .75 .875 1 19 222 1 0 7 0 18 14 S0 141 227 850 227 227 16 74 20 218 4 0 0 648 6
49 216 10 0 0 0 0 0 0 0 0 0 0 0 0 0 0 0 0 81 2 216 2715 879 7 0 10 0 0 880 0 80
 2 879 881 882 8004 0 0 0 0 3 5 0 0 0 FFTFFFFFFFFFFF2 3 83 1 880 1e3 79 16 882 S
DL/TYSA_DENSITY84 27 217 CUI_DEVICES_CMC-4013-SMT-TR74 20 6 1 0 0 2 0 0 0 0 0 0
 0 0 0 0 0 0 0 0 0 0 0 0 0 1 0 
