**ABCDEFGHIJKLMNOPQRSTUVWXYZabcdefghijklmnopqrstuvwxyz**************************
**PARASOLID !"#$%&'()*+,-./:;<=>?@[\]^_`{|}~0123456789**************************
**PART1;
MC=AMD64;
MC_MODEL=Intel64 Family 6 Model 58 Stepping 9, GenuineIntel;
MC_ID=unknown;
OS=Windows_NT;
OS_RELEASE=unknown;
FRU=Parasolid Version 31.0, build 264, 12-10-2018;
APPL=SOLIDWORKS 2019-2019057;
SITE=;
USER=unknown;
FORMAT=text;
GUISE=transmit;
KEY=16-oz-plastic-cup;
FILE=16-oz-plastic-cup.x_t;
DATE=Wed Apr 15 18:27:09 2020;
**PART2;
SCH=SCH_3100264_31001;
USFLD_SIZE=0;
**PART3;
**END_OF_HEADER*****************************************************************
T51 : TRANSMIT FILE created by modeller version 310026423 SCH_3100264_31001_1300
6215 0 12 34 CCCCCCI4 mesh1006 0 I8 polyline1008 0 CCCCCCCDI5 owner1040 0 CCCCCC
I13 boundary_mesh1006 0 I17 boundary_polyline1008 0 CCCA16 index_map_offset0 0 1
 dA9 index_map82 0 A17 node_id_index_map82 0 A20 schema_embedding_map82 0 A5 chi
ld12 0 A14 lowest_node_id0 0 1 dA16 mesh_offset_data206 0 Z1 787 2 3 0 0 0 0 0 0
 1e3 1e-8 0 4 0 1 0 1 1 5 6 7 0 0 0 8 9 0 0 0 0 0 0 0 0 81 255 2 2 758 10 1 11 0
 0 0 0 12 70 11 CI9 list_type0 0 1 uI10 notransmit0 0 1 lCCCDCCDI12 finger_index
0 0 1 dI12 finger_block1012 0 CZ3 0 4 T1 0 0 8 20 1 13 13 13 255 5 216 0 1 0 14
 0 0 15 0 54 255 6 401 0 14 16 0 0 -0 .00711442651473735 0 0 -1 0 .0271827508937
2165 .001 0 0 -1 31 255 7 429 0 9 17 0 0 +0 .00696931232730907 0 0 -1 0 0 0 -1 .
02817216580800535 19 8 CCCCCCCA5 owner12 0 Z8 220 0 1 15 0 18 V0 16 255 9 364 0
 ?19 0 20 7 0 0 1 17 255 19 0 21 19 19 0 22 9 0 0 +16 20 359 0 ?23 9 24 17 0 0 1
 17 23 0 25 23 23 0 26 20 0 0 +16 24 354 0 ?27 20 28 29 0 0 1 31 17 428 0 20 29
 7 0 +0 .1118451141874282 0 0 -1 0 0 0 -1 .0435539500808228 31 29 427 0 24 30 17
 0 +0 .1126179558791874 0 0 -1 0 0 0 -1 .04414668249755325 31 30 426 0 28 31 29
 0 +0 .113535911758375 0 0 -1 0 0 0 -1 .04475 16 28 349 0 ?32 24 33 30 0 0 1 31
 31 425 0 33 34 30 0 +0 .1184352222073078 0 0 -1 0 0 0 -1 .04475 16 33 344 0 ?35
 28 36 31 0 0 1 31 34 424 0 36 37 31 0 +0 .1170538099846784 0 0 -1 0 0 0 -1 .045
600481412486 16 36 339 0 ?38 33 39 34 0 0 1 31 37 423 0 39 40 34 0 +0 .117499602
1710816 0 0 -1 0 0 0 -1 .045826915538913 16 39 334 0 ?41 36 42 37 0 0 1 31 40 42
2 0 42 43 37 0 +0 .1184352222073078 0 0 -1 0 0 0 -1 .04525 16 42 329 0 ?44 39 45
 40 0 0 1 31 43 421 0 45 46 40 0 +0 .113535911758375 0 0 -1 0 0 0 -1 .04525 16 4
5 324 0 ?47 42 48 43 0 0 1 31 46 420 0 48 49 43 0 +0 .1121589779395936 0 0 -1 0
 0 0 -1 .0443450237463299 16 48 319 0 ?50 45 51 46 0 0 1 31 49 419 0 51 52 46 0
 +0 .111772557093714 0 0 -1 0 0 0 -1 .04404865753796465 16 51 314 0 ?53 48 54 49
 0 0 1 31 52 418 0 54 55 49 0 +0 .00689675523359494 0 0 -1 0 0 0 -1 .02866687326
51472 16 54 309 0 ?56 51 57 52 0 0 1 31 55 417 0 57 58 52 0 +0 .0057536066286843
2 0 0 -1 0 0 0 -1 .02781375742120185 16 57 304 0 ?59 54 60 55 0 0 1 31 58 416 0
 60 61 55 0 +0 .00528809861102683 0 0 -1 0 0 0 -1 .02752423459348985 16 60 299 0
 ?62 57 63 58 0 0 1 31 61 415 0 63 64 58 0 +0 .001035704166919436 0 0 -1 0 0 0 -
1 .0276254820802543 16 63 294 0 ?65 60 66 61 0 0 1 31 64 414 0 66 67 61 0 +0 -5e
-4 0 0 -1 0 0 0 -1 .0261259070696381 16 66 289 0 ?68 63 69 64 0 0 1 31 67 413 0
 69 70 64 0 +0 -5e-4 0 0 -1 0 0 0 -1 .01963203530439575 16 69 284 0 ?71 66 72 67
 0 0 1 31 70 412 0 72 73 67 0 +0 -.0002789513368380815 0 0 -1 0 0 0 -1 .01884827
291820965 16 72 279 0 ?74 69 75 70 0 0 1 31 73 411 0 75 76 70 0 +0 .000276317112
2793495 0 0 -1 0 0 0 -1 .0179421802837334 16 75 274 0 ?77 72 78 73 0 0 1 31 76 4
10 0 78 79 73 0 +0 .000349999999999991 0 0 -1 0 0 0 -1 .0176809261550047 16 78 2
69 0 ?80 75 81 76 0 0 1 31 79 409 0 81 82 76 0 +0 .000849999999999991 0 0 -1 0 0
 0 -1 .0176809261550047 16 81 254 0 ?83 78 84 79 0 0 1 31 82 408 0 84 85 79 0 +0
 .00070263422455871 0 0 -1 0 0 0 -1 .0182034344124621 16 84 249 0 ?86 81 87 82 0
 0 1 31 85 407 0 87 88 82 0 +0 .00014736577544128 0 0 -1 0 0 0 -1 .0191095270469
3835 16 87 244 0 ?89 84 90 85 0 0 1 31 88 406 0 90 91 85 0 +0 -1734723475976805e
-33 0 0 -1 0 0 0 -1 .01963203530439575 16 90 239 0 ?92 87 93 88 0 0 1 31 91 405
 0 93 94 88 0 +0 -318628694867909e-32 0 0 -1 0 0 0 -1 .0261259070696381 16 93 23
4 0 ?95 90 96 91 0 0 1 31 94 404 0 96 97 91 0 +0 .001023802777946292 0 0 -1 0 0
 0 -1 .02712562374338225 16 96 229 0 ?98 93 99 94 0 0 1 31 97 403 0 99 100 94 0
 +0 .00527619722205368 0 0 -1 0 0 0 -1 .02702437625661775 16 99 224 0 ?101 96 10
2 97 0 0 1 31 100 402 0 102 0 97 0 +0 .00620721325736867 0 0 -1 0 0 0 -1 .027603
42191204175 16 102 222 0 ?103 99 0 100 0 0 1 17 103 0 104 103 103 0 105 102 0 0
 +15 255 104 574 0 103 14 106 17 105 0 107 105 105 0 103 102 0 0 -15 107 226 0 1
05 108 0 14 255 108 227 109 ?0 110 111 5 112 +0 0 0 110 18 81 1 109 759 113 108
 114 0 0 115 116 14 110 232 115 ?108 117 118 5 119 +0 0 108 117 18 15 111 573 0
 101 108 107 54 112 373 0 108 0 119 0 +0 .0053 0 0 -1 0 .0280240929303619 .001 0
 0 -1 13 18 219 0 0 0 0 0 0 8 14 14 14 370 120 ?121 0 104 5 6 +0 0 121 0 18 81 1
 120 761 113 14 122 0 115 123 124 14 121 367 123 ?125 14 126 5 16 -0 0 125 14 18
 81 1 123 762 113 121 127 0 120 128 129 14 125 362 128 ?130 121 25 5 131 +0 0 13
0 121 18 15 126 546 0 26 121 21 52 255 16 400 0 121 131 6 0 +0 .0069693123273090
7 0 0 1 0 .02817216580800535 .1451141874282766 .989414914283705 0 0 1 54 131 399
 0 125 132 16 0 +0 .1117 0 0 -1 0 .0445433649951065 .001 0 0 -1 54 132 398 0 130
 133 131 0 -0 .113535911758375 0 0 -1 0 .04375 .001 0 0 -1 14 130 357 134 ?135 1
25 136 5 132 +0 0 135 125 18 51 255 133 397 0 135 137 132 0 -0 0 0 0 -1 0 .04475
 0 0 -1 14 135 352 138 ?139 130 140 5 133 +0 0 139 130 18 54 137 396 0 139 141 1
33 0 -0 .1184352222073078 0 0 -1 0 .0462971345541355 .001547134554135455 0 0 -1
 14 139 347 142 ?143 135 144 5 137 -0 0 143 135 18 52 141 395 0 143 145 137 0 -0
 .1174996021710816 0 0 1 0 .045826915538913 .452865456808934 .891578868092574 0
 0 1 14 143 342 146 ?147 139 148 5 141 +0 0 147 139 18 54 145 394 0 147 149 141
 0 -0 .1184352222073078 0 0 -1 0 .0462971345541355 .00104713455413546 0 0 -1 14
 147 337 150 ?151 143 152 5 145 +0 0 151 143 18 51 149 393 0 151 153 145 0 -0 0
 0 0 -1 0 .04525 0 0 -1 14 151 332 154 ?155 147 156 5 149 -0 0 155 147 18 54 153
 392 0 155 157 149 0 -0 .113535911758375 0 0 -1 0 .04375 .0015 0 0 -1 14 155 327
 158 ?159 151 160 5 153 -0 0 159 151 18 54 157 391 0 159 161 153 0 +0 .1117 0 0
 -1 0 .0445433649951065 5e-4 0 0 -1 14 159 322 162 ?163 155 164 5 157 -0 0 163 1
55 18 52 161 390 0 163 165 157 0 +0 .00689675523359494 0 0 1 0 .0286668732651472
 .1451141874282766 .989414914283705 0 0 1 14 163 317 166 ?167 159 168 5 161 +0 0
 167 159 18 54 165 389 0 167 169 161 0 -0 .00711442651473735 0 0 -1 0 .027182750
89372165 .0015 0 0 -1 14 167 312 170 ?171 163 172 5 165 -0 0 171 163 18 54 169 3
88 0 171 173 165 0 +0 .0053 0 0 -1 0 .0280240929303619 5e-4 0 0 -1 14 171 307 17
4 ?175 167 176 5 169 -0 0 175 167 18 52 173 387 0 175 177 169 0 -0 .005288098611
02683 0 0 -1 0 .02752423459348985 .02380277794628955 .999716673744136 0 0 -1 14
 175 302 178 ?179 171 180 5 173 -0 0 179 171 18 54 177 386 0 179 181 173 0 -0 .0
01 0 0 -1 0 .0261259070696381 .0015 0 0 -1 14 179 297 182 ?183 175 184 5 177 -0
 0 183 175 18 50 255 181 385 0 183 185 177 0 +-.0261259070696381 -5e-4 0 0 1 0 0
 0 1 14 183 292 186 ?187 179 188 5 181 -0 0 187 179 18 54 185 384 0 187 189 181
 0 -0 .001 0 0 -1 0 .01963203530439575 .0015 0 0 -1 14 187 287 190 ?191 183 192
 5 185 -0 0 191 183 18 52 189 383 0 191 193 185 0 +0 -.0002789513368380815 0 0 -
1 0 .01884827291820965 .852634224558719 .522508257457384 0 0 -1 14 191 282 194 ?
195 187 196 5 189 -0 0 195 187 18 54 193 382 0 195 197 189 0 +0 -.00015000000000
0009 0 0 -1 0 .0176809261550047 5e-4 0 0 -1 14 195 277 198 ?199 191 200 5 193 -0
 0 199 191 18 50 197 381 0 199 201 193 0 +-.0176809261550047 .000349999999999991
 0 0 1 0 0 0 1 14 199 272 202 ?203 195 204 5 197 -0 0 203 195 18 50 201 380 0 20
3 205 197 0 +-.0176809261550047 .000849999999999991 0 0 1 0 0 0 1 14 203 262 206
 ?207 199 208 5 201 +0 0 207 199 18 54 205 379 0 207 209 201 0 +0 -.000150000000
000009 0 0 -1 0 .0176809261550047 .001 0 0 -1 14 207 257 210 ?211 203 212 5 205
 +0 0 211 203 18 52 209 378 0 211 213 205 0 +0 .00014736577544128 0 0 -1 0 .0191
0952704693835 .85263422455872 .522508257457382 0 0 -1 14 211 252 214 ?215 207 21
6 5 209 +0 0 215 207 18 54 213 377 0 215 217 209 0 -0 .001 0 0 -1 0 .01963203530
439575 .001 0 0 -1 14 215 247 218 ?219 211 220 5 213 +0 0 219 211 18 50 217 376
 0 219 221 213 0 +-.0261259070696381 -246050521232795e-32 0 0 1 0 0 0 1 14 219 2
42 222 ?117 215 223 5 217 +0 0 117 215 18 54 221 375 0 117 119 217 0 -0 .001 0 0
 -1 0 .0261259070696381 .001 0 0 -1 14 117 237 224 ?110 219 225 5 221 +0 0 110 2
19 18 52 119 374 0 110 112 221 0 -0 .00527619722205368 0 0 -1 0 .027024376256617
75 .0238027779462896 .999716673744136 0 0 -1 81 1 224 787 113 117 226 0 222 0 22
7 15 225 571 0 95 117 228 17 95 0 225 95 95 0 229 93 0 0 +15 228 236 0 230 117 0
 17 230 0 228 230 230 0 98 96 0 0 -17 98 0 118 98 98 0 230 96 0 0 +15 118 572 0
 98 110 231 15 231 231 0 232 110 0 17 232 0 231 232 232 0 101 99 0 0 -17 101 0 1
11 101 101 0 232 99 0 0 +17 229 0 233 229 229 0 95 93 0 0 -15 233 241 0 229 219
 0 80 255 1 113 234 235 9000 1 1 1 1 1 1 1 1 0 FFFFTFTFFFFFFF1 81 1 226 696 236
 117 0 224 237 238 239 81 1 222 786 113 219 237 0 218 224 240 82 255 1 227 -1962
278779 81 1 237 695 236 219 0 222 241 226 242 81 1 218 785 113 215 241 0 214 222
 243 82 1 240 -1961688955 81 1 241 694 236 215 0 218 244 237 245 81 1 214 784 11
3 211 244 0 210 218 246 82 1 243 -1961099131 81 1 244 693 236 211 0 214 247 241
 248 81 1 210 783 113 207 247 0 206 214 249 82 1 246 -1960509307 81 1 247 692 23
6 207 0 210 250 244 251 81 1 206 782 113 203 250 0 202 210 252 82 1 249 -1959919
483 81 1 250 691 236 203 0 206 253 247 254 81 1 202 781 113 199 253 0 198 206 25
5 82 1 252 -1959329659 81 1 253 690 236 199 0 202 256 250 257 81 1 198 780 113 1
95 256 0 194 202 258 82 1 255 -1958150011 81 1 256 689 236 195 0 198 259 253 260
 81 1 194 779 113 191 259 0 190 198 261 82 1 258 -1957560187 81 1 259 688 236 19
1 0 194 262 256 263 81 1 190 778 113 187 262 0 186 194 264 82 1 261 -1956970363
 81 1 262 687 236 187 0 190 265 259 266 81 1 186 777 113 183 265 0 182 190 267 8
2 1 264 -1956380539 81 1 265 686 236 183 0 186 268 262 269 81 1 182 776 113 179
 268 0 178 186 270 82 1 267 -1955790715 81 1 268 685 236 179 0 182 271 265 272 8
1 1 178 775 113 175 271 0 174 182 273 82 1 270 -1955200891 81 1 271 684 236 175
 0 178 274 268 275 81 1 174 774 113 171 274 0 170 178 276 82 1 273 -1954611067 8
1 1 274 683 236 171 0 174 277 271 278 81 1 170 773 113 167 277 0 166 174 279 82
 1 276 -1954021243 81 1 277 682 236 167 0 170 280 274 281 81 1 166 772 113 163 2
80 0 162 170 282 82 1 279 -1953431419 81 1 280 681 236 163 0 166 283 277 284 81
 1 162 771 113 159 283 0 158 166 285 82 1 282 -1952841595 81 1 283 680 236 159 0
 162 286 280 287 81 1 158 770 113 155 286 0 154 162 288 82 1 285 -1952251771 81
 1 286 679 236 155 0 158 289 283 290 81 1 154 769 113 151 289 0 150 158 291 82 1
 288 -1951661947 81 1 289 678 236 151 0 154 292 286 293 81 1 150 768 113 147 292
 0 146 154 294 82 1 291 -1951072123 81 1 292 677 236 147 0 150 295 289 296 81 1
 146 767 113 143 295 0 142 150 297 82 1 294 -1950482299 81 1 295 676 236 143 0 1
46 298 292 299 81 1 142 766 113 139 298 0 138 146 300 82 1 297 -1949892475 81 1
 298 675 236 139 0 142 301 295 302 81 1 138 765 113 135 301 0 134 142 303 82 1 3
00 -1949302651 81 1 301 674 236 135 0 138 304 298 305 81 1 134 764 113 130 304 0
 128 138 306 82 1 303 -1948712827 81 1 304 673 236 130 0 134 307 301 308 81 1 12
8 763 113 125 307 0 123 134 309 82 1 306 -1948123003 81 1 307 672 236 125 0 128
 127 304 310 82 1 309 -1947533179 80 1 236 0 311 8001 0 0 0 0 3 5 0 0 0 FFFFTFTF
FFFFFF2 81 1 127 671 236 121 0 123 122 307 312 83 255 3 310 .792156862745098 .81
9607843137255 .933333333333333 81 1 122 670 236 14 0 120 0 127 313 83 3 312 .792
156862745098 .819607843137255 .933333333333333 83 3 313 .792156862745098 .819607
843137255 .933333333333333 79 255 15 311 SDL/TYSA_COLOUR83 3 308 .79215686274509
8 .819607843137255 .933333333333333 83 3 305 .792156862745098 .819607843137255 .
933333333333333 83 3 302 .792156862745098 .819607843137255 .933333333333333 83 3
 299 .792156862745098 .819607843137255 .933333333333333 83 3 296 .79215686274509
8 .819607843137255 .933333333333333 83 3 293 .792156862745098 .819607843137255 .
933333333333333 83 3 290 .792156862745098 .819607843137255 .933333333333333 83 3
 287 .792156862745098 .819607843137255 .933333333333333 83 3 284 .79215686274509
8 .819607843137255 .933333333333333 83 3 281 .792156862745098 .819607843137255 .
933333333333333 83 3 278 .792156862745098 .819607843137255 .933333333333333 83 3
 275 .792156862745098 .819607843137255 .933333333333333 83 3 272 .79215686274509
8 .819607843137255 .933333333333333 83 3 269 .792156862745098 .819607843137255 .
933333333333333 83 3 266 .792156862745098 .819607843137255 .933333333333333 83 3
 263 .792156862745098 .819607843137255 .933333333333333 83 3 260 .79215686274509
8 .819607843137255 .933333333333333 83 3 257 .792156862745098 .819607843137255 .
933333333333333 83 3 254 .792156862745098 .819607843137255 .933333333333333 83 3
 251 .792156862745098 .819607843137255 .933333333333333 83 3 248 .79215686274509
8 .819607843137255 .933333333333333 83 3 245 .792156862745098 .819607843137255 .
933333333333333 83 3 242 .792156862745098 .819607843137255 .933333333333333 81 1
 238 697 236 110 0 115 226 114 314 83 3 239 .792156862745098 .819607843137255 .9
33333333333333 81 1 115 760 113 110 238 0 109 120 315 81 1 114 698 236 108 0 109
 238 0 316 83 3 314 .792156862745098 .819607843137255 .933333333333333 83 3 316
 .792156862745098 .819607843137255 .933333333333333 82 1 315 -1962868603 79 14 2
35 SWEntUnchanged15 223 570 0 92 219 233 17 92 0 223 92 92 0 317 90 0 0 +17 317
 0 318 317 317 0 92 90 0 0 -15 318 246 0 317 215 0 15 220 569 0 89 215 318 17 89
 0 220 89 89 0 319 87 0 0 +17 319 0 320 319 319 0 89 87 0 0 -15 320 251 0 319 21
1 0 15 216 568 0 86 211 320 17 86 0 216 86 86 0 321 84 0 0 +17 321 0 322 321 321
 0 86 84 0 0 -15 322 256 0 321 207 0 15 212 567 0 83 207 322 17 83 0 212 83 83 0
 323 81 0 0 +17 323 0 208 323 323 0 83 81 0 0 -15 208 261 0 323 203 0 15 204 271
 0 80 199 0 17 80 0 204 80 80 0 324 78 0 0 +17 324 0 200 324 324 0 80 78 0 0 -15
 200 564 0 324 195 325 15 325 276 0 77 195 0 17 77 0 325 77 77 0 326 75 0 0 +17
 326 0 196 326 326 0 77 75 0 0 -15 196 563 0 326 191 327 15 327 281 0 74 191 0 1
7 74 0 327 74 74 0 328 72 0 0 +17 328 0 192 328 328 0 74 72 0 0 -15 192 562 0 32
8 187 329 15 329 286 0 71 187 0 17 71 0 329 71 71 0 330 69 0 0 +17 330 0 188 330
 330 0 71 69 0 0 -15 188 561 0 330 183 331 15 331 291 0 68 183 0 17 68 0 331 68
 68 0 332 66 0 0 +17 332 0 184 332 332 0 68 66 0 0 -15 184 560 0 332 179 333 15
 333 296 0 65 179 0 17 65 0 333 65 65 0 334 63 0 0 +17 334 0 180 334 334 0 65 63
 0 0 -15 180 559 0 334 175 335 15 335 301 0 62 175 0 17 62 0 335 62 62 0 336 60
 0 0 +17 336 0 176 336 336 0 62 60 0 0 -15 176 558 0 336 171 337 15 337 306 0 59
 171 0 17 59 0 337 59 59 0 338 57 0 0 +17 338 0 172 338 338 0 59 57 0 0 -15 172
 557 0 338 167 339 15 339 311 0 56 167 0 17 56 0 339 56 56 0 340 54 0 0 +17 340
 0 341 340 340 0 56 54 0 0 -15 341 316 0 340 163 0 15 168 556 0 53 163 341 17 53
 0 168 53 53 0 342 51 0 0 +17 342 0 164 342 342 0 53 51 0 0 -15 164 555 0 342 15
9 343 15 343 321 0 50 159 0 17 50 0 343 50 50 0 344 48 0 0 +17 344 0 160 344 344
 0 50 48 0 0 -15 160 554 0 344 155 345 15 345 326 0 47 155 0 17 47 0 345 47 47 0
 346 45 0 0 +17 346 0 156 346 346 0 47 45 0 0 -15 156 553 0 346 151 347 15 347 3
31 0 44 151 0 17 44 0 347 44 44 0 348 42 0 0 +17 348 0 349 348 348 0 44 42 0 0 -
15 349 336 0 348 147 0 15 152 552 0 41 147 349 17 41 0 152 41 41 0 350 39 0 0 +1
7 350 0 351 350 350 0 41 39 0 0 -15 351 341 0 350 143 0 15 148 551 0 38 143 351
 17 38 0 148 38 38 0 352 36 0 0 +17 352 0 144 352 352 0 38 36 0 0 -15 144 550 0
 352 139 353 15 353 346 0 35 139 0 17 35 0 353 35 35 0 354 33 0 0 +17 354 0 355
 354 354 0 35 33 0 0 -15 355 351 0 354 135 0 15 140 549 0 32 135 355 17 32 0 140
 32 32 0 356 28 0 0 +17 356 0 357 356 356 0 32 28 0 0 -15 357 356 0 356 130 0 15
 136 548 0 27 130 357 17 27 0 136 27 27 0 358 24 0 0 +17 358 0 359 358 358 0 27
 24 0 0 -15 359 361 0 358 125 0 17 26 0 126 26 26 0 23 20 0 0 -15 21 366 0 19 12
1 0 15 25 547 0 23 125 359 82 1 129 -1946943355 82 1 124 -1946615675 82 1 116 -1
963458427 15 106 369 0 22 14 0 17 22 0 106 22 22 0 19 9 0 0 -19 15 215 0 1 0 8 5
 S0 74 4 CI16 index_map_offset0 0 1 dCCZ20 13 8 0 0 360 361 224 362 363 11 114 2
 0 0 0 0 0 0 0 0 0 0 0 0 81 2 360 604 364 1 0 361 0 0 0 365 81 2 361 608 366 1 3
60 362 0 0 0 367 81 1 362 638 368 1 361 363 0 0 369 81 2 363 639 370 1 362 11 0
 0 0 0 81 2 11 669 371 1 363 2 0 0 0 372 80 2 371 373 374 9000 0 0 0 0 3 5 0 0 0
 FFTFFFFFFFFFFF9 1 82 1 372 1 79 24 374 BODY_IN_LIGHTWEIGHT_PERM80 2 370 375 376
 9000 0 0 0 0 3 5 0 0 0 FFTFFFFFFFFFFF9 1 79 16 376 BODY_RECIPE_200180 1 368 377
 378 9000 1 1 1 1 1 1 1 1 0 FFTFFFFFFFFFFF1 82 1 369 559632 79 10 378 BODY_MATCH
80 2 366 379 380 9000 0 0 0 0 3 5 0 0 0 FFTFFFFFFFFFFF9 1 82 1 367 74 79 30 380
 LAST_BODY_MODIFYING_FEATURE_ID80 2 364 381 382 9000 0 0 0 0 3 5 0 0 0 FFTFFFFFF
FFFFF9 1 82 1 365 103 79 19 382 ENT_TIME_STAMP_200180 2 10 383 384 9000 0 0 0 0
 3 5 0 0 0 FFTFFFFFFFFFFF9 1 82 1 12 101 79 12 384 ATOM_ID_20011 0 
