**ABCDEFGHIJKLMNOPQRSTUVWXYZabcdefghijklmnopqrstuvwxyz**************************
**PARASOLID !"#$%&'()*+,-./:;<=>?@[\]^_`{|}~0123456789**************************
**PART1;
MC=AMD64;
MC_MODEL=Intel64 Family 6 Model 58 Stepping 9, GenuineIntel;
MC_ID=unknown;
OS=Windows_NT;
OS_RELEASE=unknown;
FRU=Parasolid Version 31.0, build 264, 12-10-2018;
APPL=SOLIDWORKS 2019-2019057;
SITE=;
USER=unknown;
FORMAT=text;
GUISE=transmit;
KEY=microphone-holder-bell;
FILE=microphone-holder-bell.x_t;
DATE=Sat Apr  4 22:55:50 2020;
**PART2;
SCH=SCH_3100264_31001;
USFLD_SIZE=0;
**PART3;
**END_OF_HEADER*****************************************************************
T51 : TRANSMIT FILE created by modeller version 310026423 SCH_3100264_31001_1300
6215 0 12 34 CCCCCCI4 mesh1006 0 I8 polyline1008 0 CCCCCCCDI5 owner1040 0 CCCCCC
I13 boundary_mesh1006 0 I17 boundary_polyline1008 0 CCCA16 index_map_offset0 0 1
 dA9 index_map82 0 A17 node_id_index_map82 0 A20 schema_embedding_map82 0 A5 chi
ld12 0 A14 lowest_node_id0 0 1 dA16 mesh_offset_data206 0 Z1 432 2 3 0 0 0 0 0 0
 1e3 1e-8 0 4 0 1 0 1 1 5 6 7 8 0 0 9 10 11 0 0 0 0 0 0 0 81 255 2 2 420 12 1 13
 0 0 0 0 14 70 11 CI9 list_type0 0 1 uI10 notransmit0 0 1 lCCCDCCDI12 finger_ind
ex0 0 1 dI12 finger_block1012 0 CZ3 0 4 T1 0 0 7 20 1 15 15 13 255 5 62 0 1 0 16
 0 0 17 0 50 255 6 115 0 18 19 0 0 +.0175 0 0 0 1 0 0 0 1 30 255 7 211 0 10 20 0
 0 +.01012 .00983949416342413 -.00508 1 0 0 29 255 8 193 0 11 21 0 -.007874 .006
35 .0063572418547669 19 8 CCCCCCCA5 owner12 0 Z9 66 0 1 17 0 22 V0 16 255 10 209
 0 ?23 0 24 7 0 0 1 18 255 11 191 0 25 0 26 8 ?1 17 255 25 0 27 28 29 11 30 31 0
 32 +18 26 267 0 33 11 34 21 ?1 17 33 0 35 36 37 26 38 24 0 39 -18 34 266 0 36 2
6 40 41 ?1 29 21 344 0 26 41 8 .007874 .00983949416342413 .0063572418547669 29 4
1 345 0 34 42 21 .007874 .00983949416342413 -.00508 29 42 346 0 40 43 41 -.00787
4 .00983949416342413 .0063572418547669 18 40 274 0 44 34 45 42 ?1 29 43 347 0 45
 46 42 -.007874 .00983949416342413 -.00508 18 45 278 0 47 40 48 43 ?1 29 46 349
 0 48 49 43 .007874 .00635 .0063572418547669 18 48 268 0 28 45 50 46 ?1 29 49 35
6 0 50 51 46 -.007874 .00635 -.00508 18 50 270 0 52 48 53 49 ?1 29 51 357 0 53 0
 49 .007874 .00635 -.00508 18 53 269 0 54 50 0 51 ?1 17 54 0 27 29 28 53 37 55 0
 56 +15 255 27 294 0 28 57 58 17 29 0 27 25 54 50 59 60 0 0 +17 28 0 27 54 25 48
 61 62 0 37 +17 37 0 35 33 56 48 54 55 0 38 -16 55 231 0 ?54 60 0 63 0 0 1 17 56
 0 35 37 36 53 64 65 0 59 -15 35 287 0 56 66 0 17 36 0 35 56 33 34 39 67 0 64 -1
7 64 0 68 47 59 34 56 65 0 23 +16 65 228 0 ?64 69 31 70 0 0 1 17 59 0 68 64 52 5
3 29 60 0 0 -15 68 283 0 52 71 0 17 52 0 68 59 47 50 72 69 0 30 -16 60 225 0 ?29
 31 55 73 0 0 1 16 31 236 0 ?25 65 60 74 0 0 1 30 73 342 0 60 63 74 0 +.007874 .
00635 -.00508 -1 0 0 30 63 343 0 55 0 73 0 +.007874 .00635 .010668 1101551610348
492e-31 0 -1 30 74 341 0 31 73 75 0 +-.007874 .00635 -.00508 1101551610348492e-3
1 0 1 30 75 333 0 69 74 70 0 +-.007874 .00635 -.00508 0 1 0 16 69 223 0 ?72 76 6
5 75 0 0 1 30 70 332 0 65 75 77 0 +.007874 .00635 -.00508 0 1 0 31 255 77 331 0
 76 70 78 0 -0 .00635 0 0 1 0 0 0 1 .0025 16 76 239 0 ?79 80 69 77 0 0 1 30 78 3
30 0 80 77 81 0 +-.007874 .00983949416342413 198213196766108e-32 -11015516103484
92e-31 0 -1 16 80 235 0 ?82 67 76 78 0 0 1 30 81 329 0 67 78 83 0 +.007874 .0098
3949416342413 -247408491684272e-33 -1101551610348492e-31 0 1 16 67 229 0 ?39 84
 80 81 0 0 1 31 83 116 0 84 81 85 0 +0 0 0 0 1 0 0 0 1 .0215 16 84 68 0 ?86 87 6
7 83 0 0 1 31 85 117 0 87 83 88 0 +0 .0015 0 0 1 0 0 0 1 .0215 16 87 70 0 ?89 90
 84 85 0 0 1 31 88 118 0 90 85 91 0 +0 .0015 0 0 1 0 0 0 1 .0177637301825103 16
 90 75 0 ?92 93 87 88 0 0 1 31 91 119 0 93 88 94 0 +0 .00427358209479659 0 0 1 0
 0 0 1 .01012 16 93 80 0 ?95 96 90 91 0 0 1 31 94 120 0 96 91 97 0 +0 .009839494
16342413 0 0 1 0 0 0 1 .01012 16 96 85 0 ?98 99 93 94 0 0 1 31 97 122 0 99 94 10
0 0 +0 .00544285714285714 0 0 1 0 0 0 1 .0025 16 99 95 0 ?101 102 96 97 0 0 1 31
 100 123 0 102 97 103 0 +0 0 0 0 1 0 0 0 1 .0175 16 102 100 0 ?104 62 99 100 0 0
 1 31 103 197 0 62 100 105 0 +0 .00635 0 0 1 0 0 0 1 .01012 16 62 195 0 ?28 106
 102 103 0 0 1 30 105 199 0 106 103 20 0 +-.007874 0 .0063572418547669 0 1 0 16
 106 198 0 ?107 24 62 105 0 0 1 30 20 202 0 24 105 7 0 -.007874 0 .0063572418547
669 0 1 0 16 24 200 0 ?38 10 106 20 0 0 1 17 38 0 108 61 109 48 33 24 0 0 +15 10
8 192 0 109 110 111 17 61 0 108 107 38 11 28 62 0 0 -17 109 0 108 38 107 26 98 9
6 0 0 -17 107 0 108 109 61 40 32 106 0 98 +17 98 0 112 82 39 40 109 96 0 0 +15 1
12 92 0 23 113 0 17 82 0 112 23 98 45 44 80 0 0 +17 39 0 112 98 23 26 36 67 0 10
9 +17 23 0 112 39 82 34 47 10 0 0 +17 47 0 68 52 64 45 23 10 0 72 -17 72 0 114 4
4 30 45 52 69 0 82 +15 114 291 0 32 115 0 17 44 0 114 32 72 40 82 80 0 107 -17 3
0 0 114 72 32 50 25 31 0 29 -17 32 0 114 30 44 11 107 106 0 61 -14 255 115 288 1
16 ?57 66 114 5 117 -0 0 57 66 22 81 1 116 421 118 115 119 0 0 120 121 14 57 292
 120 ?0 115 27 5 122 +0 0 0 115 22 14 66 284 123 ?115 71 35 5 124 -0 0 115 71 22
 50 117 325 0 115 122 125 0 +-.007874 .00635 -.00508 -1 0 1101551610348492e-31 1
101551610348492e-31 0 1 13 22 65 0 0 0 0 0 0 9 16 14 16 220 126 ?18 0 127 5 128
 -0 0 18 0 22 81 1 126 424 118 16 129 0 123 130 131 14 18 106 130 ?132 16 133 5
 6 -0 0 132 16 22 15 127 157 0 134 16 135 51 255 128 113 0 16 136 19 0 +0 0 0 0
 1 0 .0025 0 0 1 50 136 112 0 113 137 128 0 +.01012 .00983949416342413 0 0 -1 0
 0 0 -1 52 255 19 114 0 132 128 6 0 +0 .00544285714285714 0 0 -1 0 .0025 .940028
452981614 .3410960386533285 0 0 -1 14 132 103 138 ?113 18 139 5 19 -0 0 113 18 2
2 81 1 138 426 118 132 140 0 130 141 142 14 113 93 141 ?110 132 112 5 136 -0 0 1
10 132 22 15 139 156 0 143 132 144 17 143 0 139 143 143 0 104 102 0 0 -15 144 10
2 0 101 132 0 17 101 0 144 101 101 0 134 99 0 0 +17 134 0 127 134 134 0 101 99 0
 0 -17 104 0 145 104 104 0 143 102 0 0 +15 145 105 0 104 18 0 81 1 141 427 118 1
13 146 0 138 147 148 14 110 88 147 ?149 113 108 5 137 -0 0 149 113 22 81 1 147 4
28 118 110 150 0 141 151 152 14 149 83 151 ?153 110 154 5 155 -0 0 153 110 22 51
 137 111 0 110 155 136 0 -0 0 0 0 1 0 .01012 0 0 1 52 155 110 0 149 156 137 0 -0
 .0015 0 0 -1 0 .0177637301825103 .940028452981614 .3410960386533285 0 0 -1 50 1
56 109 0 153 157 155 0 +.0177637301825103 .0015 0 0 -1 0 0 0 -1 14 153 78 158 ?1
59 149 160 5 156 -0 0 159 149 22 51 157 108 0 159 124 156 0 -0 0 0 0 1 0 .0215 0
 0 1 14 159 73 161 ?71 153 162 5 157 -0 0 71 153 22 50 124 323 0 66 125 157 0 +.
007874 .00635 .010668 1 0 1101551610348492e-31 1101551610348492e-31 0 -1 50 125
 324 0 71 117 124 0 +.007874 .00635 -.00508 0 0 -1 -1 0 0 14 71 280 163 ?66 159
 68 5 125 -0 0 66 159 22 81 1 163 432 118 71 164 0 161 0 165 80 255 1 118 166 16
7 9000 1 1 1 1 1 1 1 1 0 FFFFTFTFFFFFFF1 81 1 164 391 168 71 0 163 169 170 171 8
1 1 161 431 118 159 169 0 158 163 172 82 255 1 165 -843841392 81 1 169 390 168 1
59 0 161 173 164 174 81 1 158 430 118 153 173 0 151 161 175 82 1 172 -882245489
 81 1 173 389 168 153 0 158 176 169 177 81 1 151 429 118 149 176 0 147 158 178 8
2 1 175 -881655665 81 1 176 388 168 149 0 151 150 173 179 82 1 178 -881065841 80
 1 168 0 180 8001 0 0 0 0 3 5 0 0 0 FFFFTFTFFFFFFF2 81 1 150 387 168 110 0 147 1
46 176 181 83 255 3 179 .792156862745098 .819607843137255 .933333333333333 81 1
 146 386 168 113 0 141 140 150 182 83 3 181 .792156862745098 .819607843137255 .9
33333333333333 81 1 140 385 168 132 0 138 183 146 184 83 3 182 .792156862745098
 .819607843137255 .933333333333333 81 1 183 384 168 18 0 130 129 140 185 83 3 18
4 .792156862745098 .819607843137255 .933333333333333 81 1 130 425 118 18 183 0 1
26 138 186 81 1 129 383 168 16 0 126 0 183 187 83 3 185 .792156862745098 .819607
843137255 .933333333333333 83 3 187 .792156862745098 .819607843137255 .933333333
333333 82 1 186 -878378865 79 255 15 180 SDL/TYSA_COLOUR83 3 177 .79215686274509
8 .819607843137255 .933333333333333 83 3 174 .792156862745098 .819607843137255 .
933333333333333 81 1 170 392 168 66 0 123 164 119 188 83 3 171 .792156862745098
 .819607843137255 .933333333333333 81 1 123 423 118 66 170 0 120 126 189 81 1 11
9 393 168 115 0 116 170 190 191 83 3 188 .792156862745098 .819607843137255 .9333
33333333333 81 1 190 394 168 57 0 120 119 0 192 83 3 191 .792156862745098 .81960
7843137255 .933333333333333 81 1 120 422 118 57 190 0 116 123 193 83 3 192 .7921
56862745098 .819607843137255 .933333333333333 82 1 193 -847773552 82 1 189 -8454
79792 79 14 167 SWEntUnchanged15 162 162 0 194 159 195 17 194 0 162 194 194 0 89
 87 0 0 -15 195 72 0 86 159 0 17 86 0 195 86 86 0 196 84 0 0 +17 196 0 133 196 1
96 0 86 84 0 0 -15 133 163 0 196 18 145 17 89 0 197 89 89 0 194 87 0 0 +15 197 7
7 0 89 153 0 15 160 161 0 198 153 197 17 198 0 160 198 198 0 92 90 0 0 -17 92 0
 199 92 92 0 198 90 0 0 +15 199 82 0 92 149 0 15 154 160 0 200 149 199 17 200 0
 154 200 200 0 95 93 0 0 -17 95 0 111 95 95 0 200 93 0 0 +15 111 87 0 95 110 0 8
2 1 152 -880476016 82 1 148 -879886192 82 1 142 -878706545 15 135 219 0 201 16 0
 17 201 0 135 201 201 0 79 76 0 0 -17 79 0 58 79 79 0 201 76 0 0 +15 58 295 0 79
 57 0 82 1 131 -843317104 50 122 328 0 57 0 117 0 +0 .00635 0 0 1 0 0 0 1 82 1 1
21 -846659440 19 17 61 0 1 0 9 5 S0 74 4 CI16 index_map_offset0 0 1 dCCZ20 15 7
 0 0 202 203 163 204 13 190 2 0 0 0 0 0 0 0 0 0 0 0 0 0 81 2 202 172 205 1 0 203
 0 0 0 206 81 2 203 176 207 1 202 204 0 0 0 208 81 1 204 381 209 1 203 13 0 0 21
0 81 2 13 382 211 1 204 2 0 0 0 0 80 2 211 212 213 9000 0 0 0 0 3 5 0 0 0 FFTFFF
FFFFFFFF9 1 79 16 213 BODY_RECIPE_200180 1 209 214 215 9000 1 1 1 1 1 1 1 1 0 FF
TFFFFFFFFFFF1 82 1 210 1035036 79 10 215 BODY_MATCH80 2 207 216 217 9000 0 0 0 0
 3 5 0 0 0 FFTFFFFFFFFFFF9 1 82 1 208 63 79 30 217 LAST_BODY_MODIFYING_FEATURE_I
D80 2 205 218 219 9000 0 0 0 0 3 5 0 0 0 FFTFFFFFFFFFFT9 1 82 1 206 123 79 19 21
9 ENT_TIME_STAMP_200180 2 12 220 221 9000 0 0 0 0 3 5 0 0 0 FFTFFFFFFFFFFF9 1 82
 1 14 102 79 12 221 ATOM_ID_20011 0 
