**ABCDEFGHIJKLMNOPQRSTUVWXYZabcdefghijklmnopqrstuvwxyz**************************
**PARASOLID !"#$%&'()*+,-./:;<=>?@[\]^_`{|}~0123456789**************************
**PART1;
MC=AMD64;
MC_MODEL=Intel64 Family 6 Model 58 Stepping 9, GenuineIntel;
MC_ID=unknown;
OS=Windows_NT;
OS_RELEASE=unknown;
FRU=Parasolid Version 31.0, build 264, 12-10-2018;
APPL=SOLIDWORKS 2019-2019057;
SITE=;
USER=unknown;
FORMAT=text;
GUISE=transmit;
KEY=microphone-holder-puck-style;
FILE=microphone-holder-puck-style.x_t;
DATE=Thu Apr 16 01:37:13 2020;
**PART2;
SCH=SCH_3100264_31001;
USFLD_SIZE=0;
**PART3;
**END_OF_HEADER*****************************************************************
T51 : TRANSMIT FILE created by modeller version 310026423 SCH_3100264_31001_1300
6215 0 12 34 CCCCCCI4 mesh1006 0 I8 polyline1008 0 CCCCCCCDI5 owner1040 0 CCCCCC
I13 boundary_mesh1006 0 I17 boundary_polyline1008 0 CCCA16 index_map_offset0 0 1
 dA9 index_map82 0 A17 node_id_index_map82 0 A20 schema_embedding_map82 0 A5 chi
ld12 0 A14 lowest_node_id0 0 1 dA16 mesh_offset_data206 0 Z1 379 2 3 0 0 0 0 0 0
 1e3 1e-8 0 4 0 1 0 1 1 5 6 7 8 0 0 9 10 11 0 0 0 0 0 0 0 81 255 2 2 369 12 1 13
 0 0 0 0 14 70 11 CI9 list_type0 0 1 uI10 notransmit0 0 1 lCCCDCCDI12 finger_ind
ex0 0 1 dI12 finger_block1012 0 CZ3 0 4 T1 0 0 8 20 1 15 15 13 255 5 41 0 1 0 16
 0 0 17 0 50 255 6 76 0 18 19 0 0 +.021 0 0 0 1 0 0 0 1 31 255 7 146 0 20 21 0 0
 -0 .00635 0 0 1 0 0 0 1 .0025 29 255 8 128 0 11 22 0 .007874 .007 -.00508 19 8
 CCCCCCCA5 owner12 0 Z9 45 0 1 17 0 23 V0 16 255 10 138 0 ?24 0 25 21 0 0 1 18 2
55 11 126 0 26 0 27 8 ?1 17 255 26 0 28 29 30 11 31 32 0 33 +18 27 187 0 34 11 3
5 22 ?1 17 34 0 36 37 38 27 39 25 0 40 -18 35 189 0 41 27 42 43 ?1 29 22 261 0 2
7 43 8 .007874 .007 .010668 29 43 262 0 35 44 22 -.007874 .007 .010668 29 44 263
 0 42 45 43 -.007874 .007 -.00508 18 42 191 0 29 35 46 44 ?1 29 45 269 0 46 47 4
4 .007874 .00635 .010668 18 46 188 0 37 42 48 45 ?1 29 47 270 0 48 49 45 -.00787
4 .00635 .010668 18 48 190 0 50 46 51 47 ?1 29 49 271 0 51 52 47 -.007874 .00635
 -.00508 18 51 192 0 53 48 54 49 ?1 29 52 272 0 54 0 49 .007874 .00635 -.00508 1
8 54 193 0 31 51 0 52 ?1 17 31 0 55 56 33 54 26 32 0 30 -15 255 55 206 0 31 57 0
 17 56 0 55 40 31 46 58 59 0 60 -17 33 0 55 31 40 11 24 10 0 61 -16 32 150 0 ?26
 62 63 64 0 0 1 17 30 0 28 26 53 54 65 66 0 58 -15 28 218 0 53 67 0 17 53 0 28 3
0 29 51 68 62 0 69 -17 65 0 70 71 58 51 30 66 0 0 +16 66 167 0 ?65 72 59 73 0 0
 1 17 58 0 70 65 60 54 56 59 0 0 +15 70 201 0 58 74 75 17 60 0 70 58 71 46 76 63
 0 0 +16 59 152 0 ?58 66 0 77 0 0 1 30 255 77 260 0 59 0 73 0 +.007874 .00635 .0
10668 1101551610348492e-31 0 -1 30 73 259 0 66 77 78 0 +.007874 .00635 -.00508 -
1 0 0 30 78 258 0 72 73 79 0 +-.007874 .00635 -.00508 1101551610348492e-31 0 1 1
6 72 162 0 ?71 63 66 78 0 0 1 30 79 257 0 63 78 80 0 +-.007874 .00635 .010668 1
 0 0 16 63 157 0 ?60 32 72 79 0 0 1 30 80 252 0 81 79 82 0 +.007874 .00635 .0106
68 0 1 0 16 81 155 0 ?40 20 83 80 0 0 1 30 82 251 0 83 80 84 0 +-.007874 .00635
 .010668 0 1 0 16 83 160 0 ?38 81 62 82 0 0 1 30 84 250 0 62 82 64 0 +-.007874 .
00635 -.00508 0 1 0 16 62 165 0 ?68 83 32 84 0 0 1 30 64 249 0 32 84 85 0 +.0078
74 .00635 -.00508 0 1 0 31 85 77 0 86 64 87 0 +0 0 0 0 1 0 0 0 1 .025 16 86 47 0
 ?88 89 20 85 0 0 1 31 87 78 0 89 85 90 0 +0 .007 0 0 1 0 0 0 1 .025 16 89 49 0
 ?91 92 86 87 0 0 1 31 90 80 0 92 87 93 0 +0 .00544285714285714 0 0 1 0 0 0 1 .0
025 16 92 59 0 ?94 95 89 90 0 0 1 31 93 81 0 95 90 96 0 +0 0 0 0 1 0 0 0 1 .021
 16 95 64 0 ?97 98 92 93 0 0 1 30 96 129 0 98 93 99 0 +.025 .007 -.00508 1 0 0 1
6 98 127 0 ?61 100 95 96 0 0 1 30 99 133 0 100 96 101 0 +-.007874 .007 362124076
3859635e-33 -1101551610348492e-31 0 -1 16 100 131 0 ?102 25 98 99 0 0 1 30 101 1
37 0 25 99 21 0 +.025 .007 .010668 -1 0 0 16 25 135 0 ?39 10 100 101 0 0 1 30 21
 140 0 10 101 7 0 +.007874 .007 -188651728788283e-32 -1101551610348492e-31 0 1 1
7 39 0 103 102 24 35 34 25 0 0 +15 103 124 0 61 104 105 17 102 0 103 61 39 42 41
 100 0 0 +17 24 0 103 39 61 27 33 10 0 0 +17 61 0 103 24 102 11 29 98 0 0 +17 29
 0 28 53 26 42 61 98 0 68 -17 68 0 106 41 69 42 53 62 0 102 +15 106 214 0 50 107
 0 17 41 0 106 50 68 35 102 100 0 38 -17 69 0 106 68 50 51 71 72 0 65 -17 50 0 1
06 69 41 48 38 83 0 71 -17 71 0 70 60 65 48 69 72 0 76 +17 76 0 36 38 37 48 60 6
3 0 0 -15 36 210 0 37 108 0 17 38 0 36 34 76 35 50 83 0 39 +17 37 0 36 76 34 46
 40 81 0 56 -17 40 0 55 33 56 27 37 81 0 24 +14 255 108 207 109 ?107 57 36 5 110
 -0 0 107 57 23 81 1 109 370 111 108 112 0 0 113 114 14 107 211 113 ?67 108 106
 5 115 -0 0 67 108 23 14 57 203 116 ?108 74 55 5 117 -0 0 108 74 23 50 110 246 0
 108 118 115 0 +-.007874 .00635 .010668 0 0 1 1 0 0 13 23 44 0 0 0 0 0 0 9 16 14
 16 147 119 ?18 0 120 5 121 -0 0 18 0 23 81 1 119 373 111 16 122 0 116 123 124 1
4 18 70 123 ?125 16 126 5 6 -0 0 125 16 23 15 120 103 0 127 16 128 51 255 121 74
 0 16 129 19 0 +0 0 0 0 1 0 .0025 0 0 1 50 129 73 0 104 130 121 0 +.025 .007 0 0
 -1 0 0 0 -1 52 255 19 75 0 125 121 6 0 +0 .00544285714285714 0 0 -1 0 .0025 .95
9341905715898 .2822465375117815 0 0 -1 14 125 67 131 ?104 18 132 5 19 -0 0 104 1
8 23 81 1 131 375 111 125 133 0 123 134 135 14 104 57 134 ?136 125 103 5 129 -0
 0 136 125 23 15 132 102 0 137 125 138 17 137 0 132 137 137 0 97 95 0 0 -15 138
 66 0 94 125 0 17 94 0 138 94 94 0 127 92 0 0 +17 127 0 120 127 127 0 94 92 0 0
 -17 97 0 139 97 97 0 137 95 0 0 +15 139 69 0 97 18 0 81 1 134 376 111 104 140 0
 131 141 142 14 136 52 141 ?74 104 143 5 130 -0 0 74 104 23 81 1 141 377 111 136
 144 0 134 145 146 14 74 199 145 ?57 136 70 5 118 +0 0 57 136 23 15 143 105 0 14
7 136 148 51 130 72 0 136 117 129 0 -0 0 0 0 1 0 .025 0 0 1 50 117 243 0 57 149
 130 0 +.007874 .00635 .010668 1 0 1101551610348492e-31 1101551610348492e-31 0 -
1 50 149 244 0 67 115 117 0 +.007874 .00635 -.00508 0 0 -1 -1 0 0 14 67 215 150
 ?0 107 28 5 149 -0 0 0 107 23 50 115 245 0 107 110 149 0 +-.007874 .00635 -.005
08 -1 0 1101551610348492e-31 1101551610348492e-31 0 1 81 1 150 379 111 67 151 0
 145 0 152 80 255 1 111 153 154 9000 1 1 1 1 1 1 1 1 0 FFFFTFTFFFFFFF1 81 1 151
 347 155 67 0 150 156 0 157 81 1 145 378 111 74 158 0 141 150 159 82 255 1 152 1
650262179 81 1 158 343 155 74 0 145 144 160 161 82 1 159 1653342371 80 1 155 0 1
62 8001 0 0 0 0 3 5 0 0 0 FFFFTFTFFFFFFF2 81 1 144 342 155 136 0 141 140 158 163
 81 1 160 344 155 57 0 116 158 112 164 83 255 3 161 .792156862745098 .8196078431
37255 .933333333333333 81 1 116 372 111 57 160 0 113 119 165 81 1 112 345 155 10
8 0 109 160 156 166 83 3 164 .792156862745098 .819607843137255 .933333333333333
 81 1 156 346 155 107 0 113 112 151 167 83 3 166 .792156862745098 .8196078431372
55 .933333333333333 81 1 113 371 111 107 156 0 109 116 168 83 3 167 .79215686274
5098 .819607843137255 .933333333333333 82 1 168 1651048611 82 1 165 1652293795 8
1 1 140 341 155 104 0 134 133 144 169 83 3 163 .792156862745098 .819607843137255
 .933333333333333 81 1 133 340 155 125 0 131 170 140 171 83 3 169 .7921568627450
98 .819607843137255 .933333333333333 81 1 170 339 155 18 0 123 122 133 172 83 3
 171 .792156862745098 .819607843137255 .933333333333333 81 1 123 374 111 18 170
 0 119 131 173 81 1 122 338 155 16 0 119 0 170 174 83 3 172 .792156862745098 .81
9607843137255 .933333333333333 83 3 174 .792156862745098 .819607843137255 .93333
3333333333 82 1 173 1622147234 79 255 15 162 SDL/TYSA_COLOUR83 3 157 .7921568627
45098 .819607843137255 .933333333333333 79 14 154 SWEntUnchanged17 147 0 143 147
 147 0 91 89 0 0 -15 148 51 0 88 136 0 17 88 0 148 88 88 0 175 86 0 0 +17 175 0
 126 175 175 0 88 86 0 0 -15 126 106 0 175 18 139 17 91 0 105 91 91 0 147 89 0 0
 +15 105 56 0 91 104 0 50 118 248 0 74 0 110 0 +0 .00635 0 0 1 0 0 0 1 82 1 146
 1620050082 82 1 142 1620639907 82 1 135 1621819554 15 128 145 0 176 16 0 17 176
 0 128 176 176 0 177 20 0 0 -17 177 0 75 177 177 0 176 20 0 0 +16 20 174 0 ?177
 86 81 7 0 0 1 15 75 202 0 177 74 0 82 1 124 1652883619 82 1 114 1651835043 19 1
7 40 0 1 0 9 5 S0 74 4 CI16 index_map_offset0 0 1 dCCZ20 15 8 0 0 178 179 150 18
0 181 13 151 2 0 0 0 0 0 0 0 0 0 0 0 0 81 2 178 112 182 1 0 179 0 0 0 183 81 2 1
79 116 184 1 178 180 0 0 0 185 81 1 180 320 186 1 179 181 0 0 187 81 2 181 333 1
88 1 180 13 0 0 0 189 81 2 13 336 190 1 181 2 0 0 0 0 80 2 190 191 192 9000 0 0
 0 0 3 5 0 0 0 FFTFFFFFFFFFFF9 1 79 16 192 BODY_RECIPE_200180 2 188 193 194 9000
 0 0 0 0 3 5 0 0 0 FFTFFFFFFFFFFF9 1 82 1 189 1 79 24 194 BODY_IN_LIGHTWEIGHT_PE
RM80 1 186 195 196 9000 1 1 1 1 1 1 1 1 0 FFTFFFFFFFFFFF1 82 1 187 90199 79 10 1
96 BODY_MATCH80 2 184 197 198 9000 0 0 0 0 3 5 0 0 0 FFTFFFFFFFFFFF9 1 82 1 185
 63 79 30 198 LAST_BODY_MODIFYING_FEATURE_ID80 2 182 199 200 9000 0 0 0 0 3 5 0
 0 0 FFTFFFFFFFFFFT9 1 82 1 183 142 79 19 200 ENT_TIME_STAMP_200180 2 12 201 202
 9000 0 0 0 0 3 5 0 0 0 FFTFFFFFFFFFFF9 1 82 1 14 102 79 12 202 ATOM_ID_20011 0
 
